<svg width="42" height="42" viewBox="0 0 42 42" fill="none" xmlns="http://www.w3.org/2000/svg">
<path d="M38.5 42H38.4996L27.9983 41.9986C27.0704 41.9975 26.1809 41.6381 25.5249 40.9993C24.8688 40.3606 24.4998 39.4945 24.4987 38.5912V28.3688H17.4987V38.5912C17.4976 39.4945 17.1286 40.3606 16.4726 40.9993C15.8165 41.6381 14.927 41.9975 13.9991 41.9986L3.50044 42C3.04077 42 2.5856 41.912 2.16091 41.7407C1.73622 41.5695 1.35033 41.3186 1.02528 41.0021C0.700225 40.6857 0.442378 40.3101 0.26646 39.8966C0.0905415 39.4832 -1.72753e-06 39.0401 0 38.5926V18.902C0.000425411 18.4273 0.10253 17.9579 0.299794 17.5238C0.497058 17.0897 0.785146 16.7004 1.14566 16.3807L18.6442 0.891144C19.2869 0.317997 20.1269 5.75611e-05 20.9986 7.81508e-09C21.8702 -5.75455e-05 22.7102 0.31777 23.3531 0.890833L40.8546 16.3808C41.215 16.7005 41.503 17.0898 41.7002 17.5239C41.8974 17.958 41.9995 18.4274 42 18.9021V38.5926C42 39.0401 41.9095 39.4832 41.7336 39.8966C41.5577 40.31 41.2999 40.6856 40.9749 41.002C40.6499 41.3184 40.264 41.5694 39.8394 41.7406C39.4148 41.9119 38.9596 42 38.5 42ZM17.4987 24.9614H24.4987C25.4267 24.9625 26.3163 25.3218 26.9724 25.9606C27.6286 26.5994 27.9977 27.4654 27.9987 28.3688V38.5934L38.5 38.5926V18.9021L20.9987 3.41217L3.5 18.902V38.5926L13.9987 38.5912V28.3688C13.9998 27.4654 14.3689 26.5994 15.025 25.9606C15.6812 25.3218 16.5708 24.9625 17.4987 24.9614Z" fill="white"/>
</svg>
