<svg width="29" height="30" viewBox="0 0 29 30" fill="none" xmlns="http://www.w3.org/2000/svg">
<path d="M5.25 0.750004C5.25 0.335792 5.58578 0 6 0C6.41423 0 6.75001 0.335792 6.75001 0.750004V5.25003C6.75001 5.66425 6.41423 6.00003 6 6.00003C5.58578 6.00003 5.25 5.66425 5.25 5.25003V0.750004Z" fill="#333333"/>
<path d="M17.25 0.750004C17.25 0.335792 17.5858 0 18 0C18.4142 0 18.75 0.335792 18.75 0.750004V5.25003C18.75 5.66425 18.4142 6.00003 18 6.00003C17.5858 6.00003 17.25 5.66425 17.25 5.25003V0.750004Z" fill="#333333"/>
<path fill-rule="evenodd" clip-rule="evenodd" d="M6.75002 14.2505H5.25001V15.7505H6.75002V14.2505ZM5.25001 12.7505C4.42155 12.7505 3.75 13.422 3.75 14.2505V15.7505C3.75 16.579 4.42155 17.2505 5.25001 17.2505H6.75002C7.57847 17.2505 8.25002 16.579 8.25002 15.7505V14.2505C8.25002 13.422 7.57847 12.7505 6.75002 12.7505H5.25001Z" fill="#333333"/>
<path fill-rule="evenodd" clip-rule="evenodd" d="M12.751 14.2505H11.251V15.7505H12.751V14.2505ZM11.251 12.7505C10.4225 12.7505 9.75098 13.422 9.75098 14.2505V15.7505C9.75098 16.579 10.4225 17.2505 11.251 17.2505H12.751C13.5794 17.2505 14.251 16.579 14.251 15.7505V14.2505C14.251 13.422 13.5794 12.7505 12.751 12.7505H11.251Z" fill="#333333"/>
<path fill-rule="evenodd" clip-rule="evenodd" d="M18.751 14.2505H17.251V15.7505H18.751V14.2505ZM17.251 12.7505C16.4225 12.7505 15.751 13.422 15.751 14.2505V15.7505C15.751 16.579 16.4225 17.2505 17.251 17.2505H18.751C19.5794 17.2505 20.251 16.579 20.251 15.7505V14.2505C20.251 13.422 19.5794 12.7505 18.751 12.7505H17.251Z" fill="#333333"/>
<path fill-rule="evenodd" clip-rule="evenodd" d="M6.75002 20.25H5.25001V21.75H6.75002V20.25ZM5.25001 18.75C4.42155 18.75 3.75 19.4216 3.75 20.25V21.75C3.75 22.5785 4.42155 23.25 5.25001 23.25H6.75002C7.57847 23.25 8.25002 22.5785 8.25002 21.75V20.25C8.25002 19.4216 7.57847 18.75 6.75002 18.75H5.25001Z" fill="#333333"/>
<path fill-rule="evenodd" clip-rule="evenodd" d="M12.751 20.25H11.251V21.75H12.751V20.25ZM11.251 18.75C10.4225 18.75 9.75098 19.4216 9.75098 20.25V21.75C9.75098 22.5785 10.4225 23.25 11.251 23.25H12.751C13.5794 23.25 14.251 22.5785 14.251 21.75V20.25C14.251 19.4216 13.5794 18.75 12.751 18.75H11.251Z" fill="#333333"/>
<path fill-rule="evenodd" clip-rule="evenodd" d="M3.00002 4.50001H21.0001C21.8286 4.50001 22.5001 5.17156 22.5001 6.00002V18.0001C23.0181 18.0001 23.5207 18.0657 24.0001 18.1891V6.00002C24.0001 4.34315 22.6569 3 21.0001 3H3.00002C1.34315 3 0 4.34315 0 6.00002V24.0001C0 25.6569 1.34315 27.0001 3.00002 27.0001H17.3028C17.0342 26.5359 16.8261 26.0322 16.6891 25.5001H3.00002C2.17158 25.5001 1.50001 24.8286 1.50001 24.0001V6.00002C1.50001 5.17156 2.17158 4.50001 3.00002 4.50001Z" fill="#333333"/>
<path fill-rule="evenodd" clip-rule="evenodd" d="M23.2501 11.25H0.75V9.75H23.2501V11.25Z" fill="#333333"/>
<path fill-rule="evenodd" clip-rule="evenodd" d="M22.5 28.5001C24.9853 28.5001 27.0001 26.4853 27.0001 24C27.0001 21.5147 24.9853 19.5 22.5 19.5C20.0147 19.5 18 21.5147 18 24C18 26.4853 20.0147 28.5001 22.5 28.5001ZM22.5 30.0001C25.8138 30.0001 28.5001 27.3138 28.5001 24C28.5001 20.6863 25.8138 18 22.5 18C19.1863 18 16.5 20.6863 16.5 24C16.5 27.3138 19.1863 30.0001 22.5 30.0001Z" fill="#333333"/>
<path fill-rule="evenodd" clip-rule="evenodd" d="M22.5 20.3838C22.9142 20.3838 23.25 20.7196 23.25 21.1338V24.3574L25.0886 25.6337C25.4289 25.8698 25.5133 26.3372 25.277 26.6774C25.0409 27.0177 24.5735 27.1021 24.2333 26.8659L21.75 25.1422V21.1338C21.75 20.7196 22.0858 20.3838 22.5 20.3838Z" fill="#333333"/>
</svg>
