<svg width="488" height="456" viewBox="0 0 488 456" fill="none" xmlns="http://www.w3.org/2000/svg">
<g opacity="0.4">
<path d="M27.3008 122.715C29.6577 119.957 32.3718 117.528 35.3711 115.491L34.2272 105.495L49.8807 99.9922L55.1762 108.491C58.7879 108.211 62.4208 108.414 65.979 109.096L72.2065 101.224L87.1821 108.416L84.9368 118.211C87.6896 120.571 90.1153 123.29 92.1493 126.295L102.105 125.148L107.591 140.849L99.1181 146.161C99.4012 149.78 99.2017 153.42 98.525 156.986L106.373 163.243L99.1817 178.232L89.4168 175.991C87.063 178.752 84.3484 181.182 81.3465 183.215L82.4903 193.211L66.8368 198.714L61.5414 190.215C57.9331 190.495 54.3038 190.291 50.7492 189.61L44.5217 197.482L29.5143 190.322L31.7596 180.527C29.0068 178.167 26.5811 175.448 24.5471 172.443L14.5916 173.59L9.10547 157.889L17.5782 152.577C17.2898 148.959 17.4893 145.317 18.1713 141.752L10.3234 135.495L17.5147 120.506L27.2796 122.747L27.3008 122.715ZM38.1777 139.659C36.2586 143.66 35.5653 148.142 36.1856 152.538C36.8058 156.933 38.7118 161.046 41.6624 164.355C44.613 167.665 48.4756 170.022 52.762 171.129C57.0483 172.237 61.5657 172.044 65.743 170.576C69.9202 169.108 73.5696 166.431 76.2297 162.882C78.8899 159.334 80.4412 155.074 80.6875 150.641C80.9338 146.208 79.8641 141.802 77.6136 137.979C75.3631 134.156 72.0329 131.088 68.0442 129.164C62.6956 126.586 56.5456 126.244 50.9454 128.212C45.3453 130.18 40.753 134.297 38.1777 139.659Z" fill="#EBEBEB"/>
<path d="M406.258 277.88C408.579 275.165 411.25 272.772 414.201 270.763L413.078 260.915L428.509 255.486L433.752 263.889C437.31 263.607 440.889 263.804 444.396 264.474L450.538 256.719L465.27 263.826L463.067 273.482C465.774 275.811 468.16 278.49 470.163 281.45L479.981 280.323L485.393 295.802L477.016 301.06C477.297 304.629 477.101 308.22 476.433 311.736L484.165 317.898L477.122 332.675L467.452 330.444C465.13 333.159 462.459 335.552 459.509 337.562L460.632 347.409L445.2 352.838L439.958 344.435C436.4 344.717 432.82 344.52 429.314 343.85L423.171 351.605L408.439 344.499L410.642 334.842C407.935 332.513 405.549 329.834 403.546 326.875L393.728 328.001L388.316 312.523L396.694 307.264C396.413 303.695 396.609 300.105 397.276 296.588L389.545 290.426L396.63 275.67L406.258 277.88ZM416.976 294.58C415.083 298.524 414.399 302.942 415.01 307.277C415.621 311.611 417.5 315.666 420.408 318.928C423.317 322.191 427.126 324.516 431.352 325.607C435.578 326.699 440.032 326.509 444.15 325.061C448.268 323.613 451.866 320.973 454.488 317.473C457.11 313.974 458.639 309.774 458.88 305.404C459.122 301.033 458.066 296.689 455.846 292.92C453.626 289.152 450.341 286.129 446.408 284.233C441.136 281.695 435.076 281.359 429.558 283.299C424.04 285.239 419.514 289.296 416.976 294.58Z" fill="#E0E0E0"/>
<path d="M397.688 129.386C399.48 127.284 401.546 125.433 403.831 123.883L402.962 116.266L414.898 112.07L418.955 118.561C421.706 118.348 424.473 118.501 427.184 119.018L431.939 113.016L443.335 118.519L441.619 125.955C443.718 127.752 445.567 129.825 447.116 132.116L454.71 131.245L458.893 143.218L452.411 147.286C452.629 150.046 452.476 152.822 451.956 155.541L457.94 160.31L452.464 171.741L445.051 170.02C443.255 172.126 441.185 173.98 438.897 175.534L439.776 183.15L427.84 187.4L423.784 180.909C421.033 181.124 418.265 180.967 415.555 180.442L410.8 186.444L399.404 180.951L401.109 173.515C399.015 171.715 397.17 169.643 395.623 167.354L388.029 168.225L383.835 156.221L390.306 152.152C390.093 149.392 390.247 146.617 390.761 143.898L384.778 139.128L390.274 127.676L397.688 129.386ZM405.981 142.304C404.516 145.354 403.986 148.772 404.458 152.124C404.93 155.476 406.382 158.613 408.632 161.137C410.882 163.661 413.827 165.459 417.096 166.304C420.364 167.149 423.809 167.002 426.994 165.882C430.18 164.763 432.963 162.721 434.991 160.014C437.019 157.308 438.201 154.059 438.388 150.679C438.575 147.298 437.758 143.938 436.041 141.024C434.324 138.109 431.783 135.771 428.741 134.305C424.667 132.347 419.985 132.09 415.723 133.59C411.46 135.089 407.964 138.223 406.002 142.304H405.981Z" fill="#EBEBEB"/>
<path d="M367.6 74.0611C368.804 72.6448 370.194 71.3978 371.73 70.3535L371.148 65.2331L379.165 62.418L381.897 66.7841C383.746 66.6327 385.606 66.7364 387.426 67.0922L390.603 63.0554L398.261 66.7523L397.117 71.7664C398.523 72.9801 399.766 74.3729 400.813 75.9095L405.907 75.3252L408.724 83.367L404.382 86.1078C404.522 87.9618 404.419 89.8261 404.075 91.6531L408.1 94.8401L404.414 102.521L399.404 101.363C398.202 102.781 396.813 104.029 395.274 105.07L395.867 110.191L387.85 113.006L385.117 108.64C383.269 108.786 381.409 108.683 379.589 108.332L376.411 112.368L368.754 108.672L369.908 103.657C368.499 102.447 367.256 101.053 366.212 99.5143L361.107 100.099L358.301 92.0568L362.632 89.2948C362.482 87.441 362.585 85.5751 362.94 83.7494L358.915 80.5625L362.601 72.8819L367.6 74.0398V74.0611ZM373.171 82.7402C372.189 84.7888 371.835 87.0832 372.153 89.3335C372.471 91.5838 373.448 93.6889 374.958 95.3829C376.469 97.0768 378.447 98.2835 380.641 98.8504C382.835 99.4173 385.148 99.3189 387.286 98.5678C389.425 97.8166 391.293 96.4464 392.656 94.6302C394.018 92.8141 394.813 90.6336 394.94 88.3644C395.068 86.0951 394.521 83.839 393.37 81.8812C392.219 79.9233 390.516 78.3517 388.474 77.3649C387.118 76.709 385.646 76.3278 384.142 76.2431C382.639 76.1583 381.133 76.3716 379.712 76.8708C378.29 77.3701 376.981 78.1454 375.859 79.1525C374.736 80.1596 373.823 81.3788 373.171 82.7402Z" fill="#F5F5F5"/>
<path d="M88.7068 352.825C89.9168 351.414 91.3054 350.167 92.8373 349.117L92.2547 343.997L100.272 341.182L103.005 345.548C104.853 345.407 106.712 345.511 108.533 345.856L111.71 341.819L119.368 345.516L118.213 350.541C119.628 351.747 120.871 353.14 121.909 354.684L127.014 354.089L129.821 362.131L125.5 364.872C125.651 366.725 125.548 368.591 125.193 370.417L129.217 373.604L125.5 381.306L120.501 380.148C119.294 381.561 117.905 382.808 116.37 383.855L116.953 388.976L108.936 391.791L106.203 387.425C104.355 387.576 102.495 387.472 100.675 387.117L97.4973 391.153L89.8294 387.457L90.9838 382.442C89.5719 381.234 88.3287 379.84 87.2876 378.299L82.1827 378.884L79.3867 370.81L83.7396 368.069C83.594 366.215 83.6973 364.35 84.0467 362.524L80.0222 359.337L83.7078 351.688L88.7068 352.835V352.825ZM94.2882 361.504C93.3088 363.552 92.9565 365.846 93.2756 368.094C93.5948 370.343 94.5711 372.447 96.0814 374.14C97.5916 375.833 99.5681 377.039 101.761 377.605C103.954 378.172 106.266 378.075 108.403 377.325C110.541 376.575 112.409 375.207 113.772 373.392C115.135 371.578 115.932 369.4 116.061 367.132C116.191 364.864 115.647 362.608 114.5 360.65C113.352 358.692 111.652 357.118 109.613 356.129C108.256 355.469 106.782 355.086 105.276 354.999C103.77 354.913 102.262 355.125 100.838 355.625C99.4143 356.124 98.1028 356.9 96.9788 357.909C95.8548 358.918 94.9405 360.14 94.2882 361.504Z" fill="#F5F5F5"/>
<path d="M149.415 380.765C151.234 378.64 153.324 376.765 155.632 375.187L154.753 367.486L166.826 363.236L170.936 369.812C173.718 369.594 176.518 369.747 179.26 370.269L184.068 364.203L195.602 369.748L193.876 377.312C195.999 379.132 197.869 381.229 199.436 383.548L207.114 382.666L211.351 394.777L204.795 398.899C205.009 401.69 204.853 404.498 204.329 407.248L210.387 412.071L204.837 423.64L197.307 421.898C195.495 424.03 193.404 425.906 191.09 427.475L191.969 435.188L179.896 439.437L175.786 432.872C173.003 433.087 170.204 432.93 167.462 432.404L162.653 438.481L151.12 432.914L152.846 425.361C150.728 423.532 148.859 421.432 147.286 419.115L139.607 420.007L135.371 407.896L141.927 403.775C141.713 400.979 141.87 398.168 142.393 395.414L136.335 390.602L141.885 379.033L149.415 380.765ZM157.803 393.831C156.322 396.917 155.786 400.375 156.264 403.766C156.742 407.158 158.212 410.331 160.488 412.884C162.764 415.437 165.744 417.256 169.051 418.111C172.358 418.965 175.843 418.817 179.065 417.684C182.288 416.552 185.104 414.486 187.156 411.748C189.208 409.011 190.404 405.724 190.594 402.304C190.784 398.885 189.958 395.485 188.222 392.536C186.485 389.587 183.916 387.221 180.838 385.736C176.713 383.747 171.969 383.482 167.65 385C163.33 386.518 159.788 389.695 157.803 393.831Z" fill="#EBEBEB"/>
<path d="M73.6577 214.574C73.4216 214.686 73.1726 214.768 72.9164 214.818C72.4186 214.946 71.6984 215.169 70.7346 215.371C68.0464 215.973 65.3168 216.37 62.569 216.561C53.4503 217.247 44.2981 215.779 35.8479 212.274C27.3978 208.768 19.8852 203.323 13.9141 196.377C12.1118 194.287 10.4691 192.064 8.99986 189.726C8.45972 188.908 8.11022 188.228 7.84544 187.793C7.70447 187.571 7.58394 187.336 7.48535 187.092C7.66109 187.286 7.8139 187.5 7.94076 187.729C8.23731 188.154 8.61859 188.792 9.17991 189.61C14.9808 198.338 22.9656 205.386 32.3352 210.047C41.7048 214.708 52.1306 216.818 62.569 216.168C65.304 215.992 68.0246 215.637 70.7134 215.105C71.6772 214.946 72.408 214.744 72.9058 214.648C73.1541 214.604 73.4055 214.579 73.6577 214.574Z" fill="#E0E0E0"/>
<path d="M52.7517 222.308C52.3715 222.348 51.9881 222.348 51.6079 222.308C50.8771 222.308 49.818 222.233 48.5153 222.085C45.1187 221.723 41.7683 221.011 38.5174 219.96C35.2718 218.891 32.1421 217.496 29.1762 215.796C28.043 215.137 27.1427 214.563 26.5496 214.138C26.2238 213.94 25.9218 213.705 25.6494 213.437C25.7024 213.352 27.0686 214.223 29.3668 215.445C32.3431 217.035 35.4507 218.365 38.6551 219.418C41.8745 220.468 45.1765 221.242 48.5259 221.734C51.1419 222.085 52.7517 222.212 52.7517 222.308Z" fill="#E0E0E0"/>
<path d="M176.792 108.099C186.983 101.927 197.95 97.147 209.402 93.8854L216.117 61.5058L270.66 60.5391L278.508 92.6638C290.071 95.5176 301.202 99.9085 311.605 105.72L339.141 87.5965L378.392 125.606L361.308 153.864C367.46 164.091 372.225 175.094 375.479 186.584L407.75 193.33L408.714 248.029L376.686 255.911C373.839 267.505 369.462 278.666 363.67 289.098L381.738 316.719L343.854 356.078L315.693 338.942C305.497 345.113 294.527 349.893 283.073 353.156L276.358 385.536L221.815 386.492L213.967 354.367C202.402 351.518 191.271 347.127 180.87 341.311L153.333 359.435L114.062 321.467L131.156 293.199C125.013 282.973 120.261 271.969 117.028 260.479L84.6934 253.744L83.7402 199.034L115.767 191.163C118.613 179.568 122.99 168.407 128.784 157.975L110.715 130.355L148.599 90.9959L176.792 108.131V108.099ZM193.283 172.274C183.177 182.776 176.403 196.048 173.817 210.411C171.231 224.774 172.949 239.584 178.754 252.968C184.559 266.352 194.191 277.708 206.43 285.602C218.67 293.496 232.968 297.572 247.517 297.315C262.066 297.058 276.212 292.479 288.167 284.158C300.122 275.837 309.348 264.147 314.68 250.567C320.012 236.986 321.209 222.125 318.12 207.862C315.032 193.599 307.796 180.575 297.328 170.437C290.377 163.704 282.171 158.411 273.18 154.859C264.188 151.308 254.588 149.567 244.926 149.738C235.264 149.909 225.73 151.987 216.869 155.854C208.008 159.72 199.994 165.3 193.283 172.274Z" fill="#EBEBEB"/>
<path d="M193.283 172.274C193.283 172.274 194.342 171.074 196.619 168.96C202.314 163.667 208.827 159.337 215.905 156.137C219.424 154.524 223.069 153.202 226.803 152.185C235.932 149.696 245.45 148.975 254.848 150.061C266.264 151.395 277.208 155.398 286.801 161.746C294.919 167.135 301.915 174.055 307.401 182.122C309.315 184.974 311.038 187.952 312.558 191.035C318.976 204.209 321.357 218.996 319.4 233.528C318.895 237.318 318.091 241.062 316.996 244.724C315.916 248.455 314.524 252.087 312.834 255.581C305.943 270.012 294.581 281.818 280.446 289.236C277.021 291.052 273.45 292.577 269.771 293.793C266.16 295.016 262.46 295.954 258.703 296.598C244.293 299.086 229.471 297.238 216.106 291.286C212.987 289.865 209.962 288.244 207.051 286.431C198.823 281.212 191.683 274.441 186.028 266.492C179.384 257.092 175.031 246.26 173.319 234.866C171.91 225.484 172.298 215.919 174.463 206.683C175.343 202.873 176.533 199.143 178.021 195.528C179.238 192.513 180.654 189.581 182.258 186.753C184.526 182.844 187.154 179.156 190.106 175.737C192.139 173.411 193.283 172.274 193.283 172.274L192.489 173.166C191.98 173.772 191.143 174.6 190.18 175.801C187.29 179.246 184.714 182.944 182.48 186.849C180.874 189.672 179.459 192.6 178.244 195.613C176.784 199.192 175.615 202.883 174.749 206.651C172.621 215.847 172.262 225.365 173.69 234.696C175.426 246.021 179.778 256.782 186.399 266.12C190.078 271.3 194.411 275.981 199.288 280.047C201.832 282.174 204.514 284.129 207.316 285.9C210.209 287.699 213.216 289.306 216.318 290.713C233.145 298.213 252.161 299.123 269.623 293.262C273.272 292.048 276.815 290.531 280.213 288.726C294.241 281.359 305.517 269.639 312.357 255.316C314.039 251.849 315.424 248.246 316.498 244.544C317.582 240.908 318.379 237.193 318.881 233.432C320.826 219.006 318.475 204.326 312.124 191.236C310.614 188.177 308.905 185.221 307.009 182.387C305.154 179.633 303.112 177.01 300.898 174.537C296.676 169.791 291.859 165.613 286.568 162.108C277.03 155.782 266.149 151.781 254.795 150.422C245.447 149.326 235.977 150.022 226.888 152.472C223.161 153.467 219.523 154.771 216.011 156.371C208.943 159.533 202.422 163.804 196.693 169.023C195.528 170.032 194.734 170.904 194.151 171.435L193.283 172.274Z" fill="#A210C6"/>
<path d="M176.793 108.099L148.557 91.0382H148.663C139.036 101.077 126.274 114.356 110.822 130.44V130.27L128.911 157.89L128.964 157.975L128.911 158.06C123.156 168.487 118.804 179.632 115.969 191.205V191.311H115.863L83.8464 199.193L83.9946 199.002C84.3018 216.223 84.6301 234.505 84.969 253.712L84.7995 253.5L117.028 260.256H117.155V260.383C120.408 271.851 125.17 282.833 131.315 293.039L131.389 293.167L131.315 293.294L114.274 321.595V321.286L153.524 359.286H153.207L180.743 341.163L180.87 341.067L181.008 341.152C191.397 346.938 202.505 351.317 214.041 354.176H214.2V354.325C216.668 364.396 219.347 375.369 222.058 386.449L221.794 386.248L276.327 385.281L276.062 385.504C278.18 375.274 280.478 364.257 282.787 353.124V352.954H282.946C294.366 349.697 305.303 344.931 315.471 338.783L315.619 338.687L315.757 338.783L343.939 355.918H343.6L381.484 316.559V316.899L363.427 289.279L363.331 289.14L363.416 288.992C369.232 278.578 373.634 267.431 376.507 255.847V255.688H376.665L408.693 247.816L408.491 248.082C408.167 229.406 407.849 211.169 407.538 193.372L407.739 193.616L375.447 186.828H375.299V186.69C372.061 175.217 367.306 164.23 361.16 154.023L361.086 153.896L361.16 153.779L378.254 125.521V125.797L339.067 87.7875H339.322L311.785 105.9L311.69 105.964L311.584 105.911C301.197 100.104 290.085 95.713 278.54 92.8548H278.434V92.7486C275.596 81.063 273.033 70.5566 270.607 60.6239L270.766 60.7513L216.223 61.6649L216.35 61.5693C213.639 74.5403 211.425 85.1529 209.593 93.9384C200.979 96.3774 192.63 99.6765 184.672 103.786C182.046 105.135 180.129 106.24 178.858 106.973C177.587 107.706 176.962 108.035 176.962 108.035L178.837 106.899C180.097 106.155 182.014 105.04 184.63 103.712C192.578 99.5563 200.928 96.2246 209.551 93.7684L209.487 93.8321C211.298 85.0361 213.49 74.4235 216.17 61.4418V61.3462H216.265L270.809 60.3477H270.936V60.4751C273.361 70.3972 275.945 80.9143 278.805 92.5892L278.667 92.4511C290.246 95.312 301.394 99.7061 311.817 105.518H311.616C320.374 99.7387 329.472 93.7578 339.152 87.3838L339.3 87.2882L339.417 87.4051L378.625 125.415L378.752 125.543L378.657 125.702L361.531 153.992V153.747C367.699 163.988 372.476 175.01 375.733 186.52L375.543 186.35L407.824 193.074H408.025V193.276C408.343 211.06 408.668 229.296 409 247.986V248.198H408.798L376.771 256.081L376.973 255.89C374.119 267.507 369.731 278.689 363.924 289.14V288.864C369.884 297.986 375.906 307.193 381.993 316.485L382.12 316.665L381.961 316.825L344.077 356.131L343.929 356.29L343.738 356.173L315.556 339.038H315.842C305.634 345.21 294.654 349.994 283.19 353.262L283.391 353.05C281.082 364.172 278.784 375.21 276.666 385.43V385.642H276.443L221.91 386.598H221.688L221.635 386.386C218.934 375.306 216.244 364.332 213.787 354.261L213.988 354.463C202.406 351.591 191.255 347.19 180.828 341.375H181.103L153.567 359.498L153.397 359.604L153.249 359.466L114.062 321.446L113.925 321.318L114.031 321.148L131.114 292.88V293.135C124.956 282.888 120.187 271.863 116.933 260.351L117.102 260.511L84.6513 253.956H84.4818V253.776C84.1535 234.579 83.8358 216.297 83.5498 199.077V198.917H83.7087L115.736 191.056L115.598 191.194C118.465 179.56 122.864 168.36 128.678 157.89V158.06L110.673 130.44L110.61 130.344L110.694 130.27L148.61 90.9639H148.663H148.727L176.793 108.099Z" fill="#A210C6"/>
</g>
</svg>
