<svg width="125" height="102" viewBox="0 0 125 102" fill="none" xmlns="http://www.w3.org/2000/svg">
<path d="M42.6833 28.585C42.079 24.5922 39.5747 21.9829 35.4186 21.9829C31.6038 21.9829 27.854 23.4964 26.0877 29.6498C26.0877 29.6498 20.9307 44.0746 20.9307 49.1592C20.9948 51.5295 21.5649 53.8688 22.6118 56.0577L36.2604 95.6029C36.5036 96.543 37.0886 97.3898 37.9286 98.0175C38.7685 98.6451 39.8185 99.0202 40.9228 99.0871C41.4113 99.0585 41.8884 98.9449 42.3257 98.7531C42.7629 98.5613 43.1516 98.2952 43.4688 97.9704C43.7859 97.6455 44.025 97.2687 44.172 96.8621C44.319 96.4554 44.3709 96.0273 44.3246 95.6029L37.4003 51.5292" stroke="#C160D9" stroke-width="5" stroke-linecap="round" stroke-linejoin="round"/>
<path d="M61.1929 45.0296H46.5255C45.2913 45.1134 44.0608 44.8322 43.0331 44.2315C42.0054 43.6308 41.2406 42.7458 40.8625 41.7196L34.7598 29.3862" stroke="#C160D9" stroke-width="5" stroke-linecap="round" stroke-linejoin="round"/>
<path d="M22.9673 73.7493L20.2898 80.9814C20.2898 80.9814 12.5232 93.6911 11.2651 95.4333C10.6234 96.4751 9.53279 97.2524 8.23296 97.5943C6.93314 97.9361 5.53057 97.8145 4.33369 97.2563C2.40617 96.1432 2.69197 93.2133 4.39698 90.5405C5.49734 88.8157 13.3029 73.1328 13.3029 73.1328L17.3896 59.4395" stroke="#C160D9" stroke-width="5" stroke-linecap="round" stroke-linejoin="round"/>
<path d="M110.321 71.3924L112.496 88.38C113.025 91.457 114.725 92.7899 117.207 92.7899C119.823 92.7899 121.562 90.5604 121.562 87.2103C121.562 87.2103 120.362 67.9291 119.95 63.3075C119.539 58.6858 114.873 55.8599 107.523 55.8599" stroke="#C160D9" stroke-width="5" stroke-linecap="round" stroke-linejoin="round"/>
<path d="M56.2548 61.2342C52.3333 65.4514 50.2352 70.7325 50.3261 76.1578C50.4169 81.5831 52.6909 86.8088 56.752 90.9246C60.8131 95.0404 66.404 97.7856 72.5507 98.682C78.6975 99.5784 85.0107 98.5692 90.3908 95.8303C95.7708 93.0913 99.8768 88.796 101.993 83.6927C104.11 78.5893 104.104 73.0012 101.975 67.9017C99.8457 62.8022 95.7295 58.5144 90.3429 55.7852C84.9563 53.056 78.6407 52.0582 72.4961 52.9658" stroke="#C160D9" stroke-width="5" stroke-linecap="round" stroke-linejoin="round"/>
<path d="M64.9571 75.7494C64.9263 77.8181 65.6009 79.8482 66.8955 81.5832C68.1901 83.3181 70.0466 84.6798 72.2301 85.4961C74.4137 86.3125 76.8263 86.5468 79.1628 86.1694C81.4993 85.7921 83.6549 84.82 85.3568 83.3761C87.0587 81.9322 88.2306 80.0814 88.7243 78.0577C89.2179 76.0339 89.0112 73.9282 88.1302 72.0068C87.2492 70.0854 85.7335 68.4345 83.7748 67.263C81.8162 66.0915 79.5024 65.452 77.1262 65.4253" stroke="#C160D9" stroke-width="5" stroke-linecap="round" stroke-linejoin="round"/>
<path d="M61.0889 50.6763V59.8288C61.0889 62.7023 62.6671 63.939 64.7512 63.939C66.9149 63.939 68.2587 62.1695 68.2587 59.6446V58.3793" stroke="#C160D9" stroke-width="5" stroke-linecap="round" stroke-linejoin="round"/>
<path d="M72.9943 46.704H76.4711C82.162 46.6642 87.7522 48.011 92.6099 50.5922L91.3123 42.5635L90.0149 35.1631C89.8882 33.9313 89.2964 32.7708 88.3319 31.863C87.3674 30.9551 86.0845 30.351 84.6838 30.1451L75.5232 29.1415C71.9218 28.7655 69.4809 29.2362 68.4628 31.023L63.167 39.5403" stroke="#C160D9" stroke-width="5" stroke-linecap="round" stroke-linejoin="round"/>
<path d="M43.2256 16.4193C47.4821 16.4193 50.9327 13.4153 50.9327 9.70967C50.9327 6.00402 47.4821 3 43.2256 3C38.9691 3 35.5186 6.00402 35.5186 9.70967C35.5186 13.4153 38.9691 16.4193 43.2256 16.4193Z" stroke="#C160D9" stroke-width="5" stroke-linecap="round" stroke-linejoin="round"/>
<path d="M81.6016 23.2919C85.8581 23.2919 89.3086 20.2879 89.3086 16.5822C89.3086 12.8766 85.8581 9.87256 81.6016 9.87256C77.3451 9.87256 73.8945 12.8766 73.8945 16.5822C73.8945 20.2879 77.3451 23.2919 81.6016 23.2919Z" stroke="#C160D9" stroke-width="5" stroke-linecap="round" stroke-linejoin="round"/>
</svg>
