<svg width="50" height="50" viewBox="0 0 50 50" fill="none" xmlns="http://www.w3.org/2000/svg">
<path d="M39.5837 8.32861H10.417C8.75939 8.32861 7.16968 8.98673 5.99757 10.1582C4.82547 11.3297 4.16699 12.9185 4.16699 14.5752V35.3971C4.16699 37.0538 4.82547 38.6427 5.99757 39.8141C7.16968 40.9856 8.75939 41.6437 10.417 41.6437H39.5837C41.2413 41.6437 42.831 40.9856 44.0031 39.8141C45.1752 38.6427 45.8337 37.0538 45.8337 35.3971V14.5752C45.8337 12.9185 45.1752 11.3297 44.0031 10.1582C42.831 8.98673 41.2413 8.32861 39.5837 8.32861ZM38.1878 12.493L25.0003 22.3834L11.8128 12.493H38.1878ZM39.5837 37.4793H10.417C9.86446 37.4793 9.33455 37.26 8.94385 36.8695C8.55315 36.479 8.33366 35.9494 8.33366 35.3971V15.0957L23.7503 26.6519C24.1109 26.9222 24.5496 27.0684 25.0003 27.0684C25.4511 27.0684 25.8897 26.9222 26.2503 26.6519L41.667 15.0957V35.3971C41.667 35.9494 41.4475 36.479 41.0568 36.8695C40.6661 37.26 40.1362 37.4793 39.5837 37.4793Z" fill="white"/>
</svg>
