<svg width="25" height="26" viewBox="0 0 25 26" fill="none" xmlns="http://www.w3.org/2000/svg">
<path d="M12.5 0.779297C19.4038 0.779297 25 6.37555 25 13.2793C25 20.183 19.4038 25.7793 12.5 25.7793C10.505 25.782 8.53854 25.3053 6.76626 24.3893L1.98376 25.723C1.71694 25.7975 1.43511 25.7997 1.16717 25.7294C0.899218 25.6591 0.65478 25.5188 0.458897 25.3229C0.263015 25.127 0.122731 24.8826 0.0524194 24.6146C-0.0178924 24.3467 -0.0157039 24.0649 0.0587604 23.798L1.39376 19.0193C0.475451 17.2455 -0.002586 15.2767 1.05212e-05 13.2793C1.05212e-05 6.37555 5.59626 0.779297 12.5 0.779297ZM12.5 2.6543C9.68209 2.6543 6.97958 3.77371 4.987 5.76629C2.99443 7.75886 1.87501 10.4614 1.87501 13.2793C1.87501 15.1168 2.34126 16.883 3.21626 18.4505L3.40376 18.788L2.01376 23.768L6.99751 22.378L7.33501 22.5655C8.75299 23.3539 10.3327 23.8071 11.9529 23.8903C13.5732 23.9735 15.191 23.6846 16.6823 23.0457C18.1736 22.4067 19.4988 21.4348 20.5562 20.2043C21.6136 18.9738 22.3752 17.5176 22.7826 15.9471C23.19 14.3767 23.2323 12.7339 22.9063 11.1445C22.5803 9.55521 21.8947 8.06165 20.9021 6.77838C19.9094 5.4951 18.636 4.4562 17.1796 3.74133C15.7232 3.02646 14.1224 2.65461 12.5 2.6543ZM12.5 17.6543C12.8315 17.6543 13.1495 17.786 13.3839 18.0204C13.6183 18.2548 13.75 18.5728 13.75 18.9043C13.75 19.2358 13.6183 19.5538 13.3839 19.7882C13.1495 20.0226 12.8315 20.1543 12.5 20.1543C12.1685 20.1543 11.8505 20.0226 11.6161 19.7882C11.3817 19.5538 11.25 19.2358 11.25 18.9043C11.25 18.5728 11.3817 18.2548 11.6161 18.0204C11.8505 17.786 12.1685 17.6543 12.5 17.6543ZM12.5 6.7168C13.4117 6.7168 14.286 7.07896 14.9307 7.72362C15.5753 8.36827 15.9375 9.24261 15.9375 10.1543C15.9375 11.4168 15.5663 12.1218 14.6238 13.103L14.4125 13.3168C13.635 14.0943 13.4375 14.4243 13.4375 15.1543C13.4375 15.4029 13.3387 15.6414 13.1629 15.8172C12.9871 15.993 12.7487 16.0918 12.5 16.0918C12.2514 16.0918 12.0129 15.993 11.8371 15.8172C11.6613 15.6414 11.5625 15.4029 11.5625 15.1543C11.5625 13.8918 11.9338 13.1868 12.8763 12.2055L13.0875 11.9918C13.865 11.2143 14.0625 10.8843 14.0625 10.1543C14.0612 9.75464 13.9068 9.37067 13.6311 9.08136C13.3554 8.79205 12.9793 8.6194 12.5801 8.5989C12.181 8.57841 11.7892 8.71164 11.4853 8.97119C11.1814 9.23074 10.9885 9.59688 10.9463 9.9943L10.9375 10.1543C10.9375 10.4029 10.8387 10.6414 10.6629 10.8172C10.4871 10.993 10.2487 11.0918 10 11.0918C9.75137 11.0918 9.51291 10.993 9.3371 10.8172C9.16128 10.6414 9.06251 10.4029 9.06251 10.1543C9.06251 9.24261 9.42467 8.36827 10.0693 7.72362C10.714 7.07896 11.5883 6.7168 12.5 6.7168Z" fill="#212427"/>
</svg>
