<svg width="26" height="29" viewBox="0 0 26 29" fill="none" xmlns="http://www.w3.org/2000/svg">
<path d="M11.4329 1.36752C12.2624 0.583223 13.5601 0.583223 14.3896 1.36752L24.8122 11.2217C25.4571 11.8314 25.8225 12.6797 25.8225 13.5672V25.5515C25.8225 27.3341 24.3773 28.7793 22.5947 28.7793H18.2909C16.5083 28.7793 15.0631 27.3341 15.0631 25.5515V20.1718C15.0631 19.5776 14.5814 19.0959 13.9872 19.0959H11.8353C11.2411 19.0959 10.7594 19.5776 10.7594 20.1718V25.5515C10.7594 27.3341 9.31424 28.7793 7.53157 28.7793H3.22781C1.44514 28.7793 0 27.3341 0 25.5515V13.5672C0 12.6797 0.365389 11.8314 1.01026 11.2217L11.4329 1.36752ZM19.7814 9.42662C15.9264 5.78188 9.89611 5.78187 6.04112 9.42661L2.48862 12.7853C2.27367 12.9886 2.15188 13.2714 2.15188 13.5672V25.5515C2.15188 26.1456 2.63359 26.6274 3.22781 26.6274H7.53157C8.12578 26.6274 8.6075 26.1456 8.6075 25.5515V20.1718C8.6075 18.3892 10.0526 16.944 11.8353 16.944H13.9872C15.7699 16.944 17.215 18.3892 17.215 20.1718V25.5515C17.215 26.1456 17.6968 26.6274 18.2909 26.6274H22.5947C23.1888 26.6274 23.6706 26.1456 23.6706 25.5515V13.5672C23.6706 13.2714 23.5488 12.9886 23.3339 12.7853L19.7814 9.42662Z" fill="white"/>
</svg>
