<svg width="58" height="58" viewBox="0 0 58 58" fill="none" xmlns="http://www.w3.org/2000/svg">
<g filter="url(#filter0_d_928_7822)">
<rect x="4" width="50" height="50" rx="10" fill="#A210C6"/>
</g>
<path d="M28.5013 9.91602C36.5557 9.91602 43.0846 16.445 43.0846 24.4993C43.0846 32.5537 36.5557 39.0827 28.5013 39.0827C26.1738 39.0859 23.8796 38.5297 21.8119 37.461L16.2324 39.0171C15.9211 39.1039 15.5923 39.1065 15.2797 39.0245C14.9671 38.9424 14.6819 38.7788 14.4533 38.5502C14.2248 38.3217 14.0612 38.0365 13.9791 37.7239C13.8971 37.4113 13.8996 37.0825 13.9865 36.7712L15.544 31.196C14.4727 29.1265 13.915 26.8297 13.918 24.4993C13.918 16.445 20.4469 9.91602 28.5013 9.91602ZM28.5013 12.1035C25.2137 12.1035 22.0608 13.4095 19.7361 15.7342C17.4115 18.0588 16.1055 21.2118 16.1055 24.4993C16.1055 26.6431 16.6494 28.7037 17.6703 30.5325L17.889 30.9262L16.2674 36.7362L22.0817 35.1146L22.4755 35.3333C24.1298 36.2531 25.9728 36.7818 27.8631 36.8789C29.7534 36.976 31.6408 36.6389 33.3807 35.8934C35.1205 35.148 36.6665 34.0141 37.9002 32.5785C39.1339 31.143 40.0224 29.444 40.4977 27.6118C40.9729 25.7797 41.0223 23.863 40.642 22.0088C40.2617 20.1546 39.4618 18.4121 38.3037 16.9149C37.1456 15.4178 35.66 14.2057 33.9609 13.3717C32.2617 12.5377 30.3941 12.1039 28.5013 12.1035ZM28.5013 29.6035C28.8881 29.6035 29.259 29.7572 29.5325 30.0307C29.806 30.3041 29.9596 30.6751 29.9596 31.0618C29.9596 31.4486 29.806 31.8196 29.5325 32.093C29.259 32.3665 28.8881 32.5202 28.5013 32.5202C28.1145 32.5202 27.7436 32.3665 27.4701 32.093C27.1966 31.8196 27.043 31.4486 27.043 31.0618C27.043 30.6751 27.1966 30.3041 27.4701 30.0307C27.7436 29.7572 28.1145 29.6035 28.5013 29.6035ZM28.5013 16.8431C29.5649 16.8431 30.585 17.2656 31.3371 18.0177C32.0892 18.7698 32.5117 19.7899 32.5117 20.8535C32.5117 22.3264 32.0786 23.1489 30.979 24.2937L30.7326 24.5431C29.8255 25.4502 29.5951 25.8352 29.5951 26.6868C29.5951 26.9769 29.4798 27.2551 29.2747 27.4602C29.0696 27.6654 28.7914 27.7806 28.5013 27.7806C28.2112 27.7806 27.933 27.6654 27.7279 27.4602C27.5228 27.2551 27.4076 26.9769 27.4076 26.6868C27.4076 25.2139 27.8407 24.3914 28.9403 23.2466L29.1867 22.9973C30.0938 22.0902 30.3242 21.7052 30.3242 20.8535C30.3227 20.3872 30.1426 19.9393 29.8209 19.6018C29.4992 19.2642 29.0605 19.0628 28.5948 19.0389C28.1291 19.015 27.672 19.1704 27.3175 19.4732C26.9629 19.776 26.7379 20.2032 26.6886 20.6668L26.6784 20.8535C26.6784 21.1436 26.5632 21.4218 26.358 21.6269C26.1529 21.832 25.8747 21.9473 25.5846 21.9473C25.2946 21.9473 25.0164 21.832 24.8113 21.6269C24.6061 21.4218 24.4909 21.1436 24.4909 20.8535C24.4909 19.7899 24.9134 18.7698 25.6655 18.0177C26.4176 17.2656 27.4377 16.8431 28.5013 16.8431Z" fill="white"/>
<defs>
<filter id="filter0_d_928_7822" x="0" y="0" width="58" height="58" filterUnits="userSpaceOnUse" color-interpolation-filters="sRGB">
<feFlood flood-opacity="0" result="BackgroundImageFix"/>
<feColorMatrix in="SourceAlpha" type="matrix" values="0 0 0 0 0 0 0 0 0 0 0 0 0 0 0 0 0 0 127 0" result="hardAlpha"/>
<feOffset dy="4"/>
<feGaussianBlur stdDeviation="2"/>
<feComposite in2="hardAlpha" operator="out"/>
<feColorMatrix type="matrix" values="0 0 0 0 0 0 0 0 0 0 0 0 0 0 0 0 0 0 0.25 0"/>
<feBlend mode="normal" in2="BackgroundImageFix" result="effect1_dropShadow_928_7822"/>
<feBlend mode="normal" in="SourceGraphic" in2="effect1_dropShadow_928_7822" result="shape"/>
</filter>
</defs>
</svg>
