<svg width="26" height="28" viewBox="0 0 26 28" fill="none" xmlns="http://www.w3.org/2000/svg">
<path d="M11.4329 0.588221C12.2624 -0.196074 13.5601 -0.196074 14.3896 0.588221L24.8122 10.4424C25.4571 11.0521 25.8225 11.9004 25.8225 12.7879V24.7722C25.8225 26.5548 24.3773 28 22.5947 28H18.2909C16.5083 28 15.0631 26.5548 15.0631 24.7722V19.3925C15.0631 18.7983 14.5814 18.3166 13.9872 18.3166H11.8353C11.2411 18.3166 10.7594 18.7983 10.7594 19.3925V24.7722C10.7594 26.5548 9.31424 28 7.53157 28H3.22781C1.44514 28 0 26.5548 0 24.7722V12.7879C0 11.9004 0.365389 11.0521 1.01026 10.4424L11.4329 0.588221ZM12.9113 2.15188L2.48862 12.0061C2.27367 12.2093 2.15188 12.4921 2.15188 12.7879V24.7722C2.15188 25.3663 2.63359 25.8481 3.22781 25.8481H7.53157C8.12578 25.8481 8.6075 25.3663 8.6075 24.7722V19.3925C8.6075 17.6099 10.0526 16.1647 11.8353 16.1647H13.9872C15.7699 16.1647 17.215 17.6099 17.215 19.3925V24.7722C17.215 25.3663 17.6968 25.8481 18.2909 25.8481H22.5947C23.1888 25.8481 23.6706 25.3663 23.6706 24.7722V12.7879C23.6706 12.4921 23.5488 12.2093 23.3339 12.0061L12.9113 2.15188Z" fill="#212121"/>
</svg>
