<svg width="1440" height="219" viewBox="0 0 1440 219" fill="none" xmlns="http://www.w3.org/2000/svg">
<path fill-rule="evenodd" clip-rule="evenodd" d="M1450 0L1376.71 3.94087C1303.42 8.44473 1156.83 16.3265 1010.25 48.9794C863.667 81.0694 717.083 137.931 570.5 133.99C423.917 130.049 277.333 64.7429 130.75 44.4756C-15.8333 24.2082 -162.417 48.9794 -235.708 60.8021L-309 73.1877V219H-235.708C-162.417 219 -15.8333 219 130.75 219C277.333 219 423.917 219 570.5 219C717.083 219 863.667 219 1010.25 219C1156.83 219 1303.42 219 1376.71 219H1450V0Z" fill="url(#paint0_linear_267_2818)"/>
<defs>
<linearGradient id="paint0_linear_267_2818" x1="570.5" y1="0" x2="570.5" y2="219" gradientUnits="userSpaceOnUse">
<stop stop-color="#D188E3" stop-opacity="0.5"/>
<stop offset="1" stop-color="#A210C6" stop-opacity="0"/>
</linearGradient>
</defs>
</svg>
