<svg width="30" height="32" viewBox="0 0 30 32" fill="none" xmlns="http://www.w3.org/2000/svg">
<path d="M22.3106 4.31922L21.6131 5.48172C21.5165 5.64746 21.487 5.84395 21.5308 6.03075C21.5746 6.21756 21.6884 6.38047 21.8486 6.48597C23.9937 7.94922 25.6136 10.0612 26.4708 12.5123C27.328 14.9634 27.3773 17.6246 26.6117 20.1058C25.846 22.587 24.3055 24.7576 22.2162 26.2994C20.1269 27.8412 17.5985 28.6731 15.0019 28.6731C12.4052 28.6731 9.87689 27.8412 7.78755 26.2994C5.6982 24.7576 4.15777 22.587 3.3921 20.1058C2.62642 17.6246 2.6758 14.9634 3.53297 12.5123C4.39015 10.0612 6.01003 7.94922 8.15513 6.48597C8.31506 6.38037 8.4285 6.21754 8.47216 6.03092C8.51582 5.84431 8.48637 5.64806 8.38988 5.48247L7.69538 4.32297C7.64329 4.23529 7.57408 4.159 7.49186 4.09867C7.40964 4.03834 7.3161 3.99519 7.21684 3.97181C7.11757 3.94843 7.01461 3.94529 6.91411 3.96259C6.8136 3.97988 6.71762 4.01725 6.63188 4.07247C3.96411 5.86574 1.94298 8.46858 0.866355 11.4974C-0.210267 14.5262 -0.285428 17.8208 0.65195 20.8955C1.58933 23.9703 3.48966 26.6626 6.07287 28.5756C8.65608 30.4887 11.7855 31.5213 15 31.5213C18.2145 31.5213 21.3439 30.4887 23.9271 28.5756C26.5103 26.6626 28.4107 23.9703 29.348 20.8955C30.2854 17.8208 30.2103 14.5262 29.1336 11.4974C28.057 8.46858 26.0359 5.86574 23.3681 4.07247C23.2832 4.0168 23.1879 3.97896 23.0879 3.96123C22.9879 3.9435 22.8854 3.94625 22.7865 3.96933C22.6876 3.9924 22.5945 4.03531 22.5127 4.09545C22.4309 4.15559 22.3621 4.23172 22.3106 4.31922Z" fill="black"/>
<path d="M15.749 0H14.249C13.8348 0 13.499 0.335786 13.499 0.75V14.25C13.499 14.6642 13.8348 15 14.249 15H15.749C16.1632 15 16.499 14.6642 16.499 14.25V0.75C16.499 0.335786 16.1632 0 15.749 0Z" fill="black"/>
</svg>
