<svg width="350" height="350" viewBox="0 0 350 350" fill="none" xmlns="http://www.w3.org/2000/svg">
<path d="M350 307.574H0V307.809H350V307.574Z" fill="#EBEBEB"/>
<path d="M314.93 322.69H291.746V322.925H314.93V322.69Z" fill="#EBEBEB"/>
<path d="M231.854 325.246H225.771V325.481H231.854V325.246Z" fill="#EBEBEB"/>
<path d="M291.046 313.973H277.613V314.208H291.046V313.973Z" fill="#EBEBEB"/>
<path d="M66.9557 315.55H36.7227V315.785H66.9557V315.55Z" fill="#EBEBEB"/>
<path d="M77.6224 315.55H73.1914V315.785H77.6224V315.55Z" fill="#EBEBEB"/>
<path d="M157.605 319.515H92.0293V319.75H157.605V319.515Z" fill="#EBEBEB"/>
<path d="M165.899 265.675H30.7361C29.6772 265.673 28.6624 265.106 27.9143 264.101C27.1662 263.095 26.7461 261.732 26.7461 260.311V5.31726C26.7553 3.90436 27.1795 2.55339 27.9266 1.55781C28.6737 0.562219 29.6833 0.00242038 30.7361 0H165.899C166.959 0 167.976 0.565159 168.725 1.57115C169.475 2.57714 169.896 3.94155 169.896 5.36423V260.311C169.896 261.734 169.475 263.098 168.725 264.104C167.976 265.11 166.959 265.675 165.899 265.675ZM30.7361 0.18789C29.7237 0.190378 28.7533 0.731889 28.0381 1.69356C27.3228 2.65524 26.9211 3.95849 26.9211 5.31726V260.311C26.9211 261.67 27.3228 262.973 28.0381 263.935C28.7533 264.896 29.7237 265.438 30.7361 265.44H165.899C166.912 265.438 167.883 264.897 168.6 263.935C169.316 262.974 169.719 261.671 169.721 260.311V5.31726C169.719 3.95763 169.316 2.6544 168.6 1.69299C167.883 0.731584 166.912 0.190373 165.899 0.18789H30.7361Z" fill="#EBEBEB"/>
<path d="M317.317 265.675H182.147C181.088 265.673 180.072 265.107 179.323 264.101C178.574 263.096 178.152 261.733 178.15 260.311V5.31726C178.161 3.9035 178.587 2.55255 179.335 1.55722C180.084 0.56189 181.094 0.00239398 182.147 0H317.317C318.369 0.00488934 319.377 0.56578 320.122 1.5611C320.868 2.55643 321.291 3.90598 321.3 5.31726V260.311C321.3 261.73 320.881 263.092 320.135 264.097C319.388 265.103 318.375 265.67 317.317 265.675ZM182.147 0.18789C181.134 0.190373 180.163 0.731584 179.447 1.69299C178.731 2.6544 178.327 3.95763 178.325 5.31726V260.311C178.327 261.671 178.731 262.974 179.447 263.935C180.163 264.897 181.134 265.438 182.147 265.44H317.317C318.33 265.438 319.302 264.897 320.018 263.935C320.734 262.974 321.138 261.671 321.139 260.311V5.31726C321.138 3.95763 320.734 2.6544 320.018 1.69299C319.302 0.731584 318.33 0.190373 317.317 0.18789H182.147Z" fill="#EBEBEB"/>
<path d="M115.143 10.0996H65.2676V237.173H115.143V10.0996Z" fill="#FAFAFA"/>
<path d="M107.715 10.0996H104.803L87.4082 237.173H90.3202L107.715 10.0996Z" fill="#F5F5F5"/>
<path d="M114.26 10.9727H64.9453V12.9737H114.26V10.9727Z" fill="#E0E0E0"/>
<path d="M114.26 235.181H64.9453V239.465H114.26V235.181Z" fill="#EBEBEB"/>
<path d="M113.443 239.277H66.8438V239.465H113.443V239.277Z" fill="#EBEBEB"/>
<path d="M66.8438 10.972H113.443V239.276H116.236V8.16309H64.0508V239.276H66.8438V10.972Z" fill="#EBEBEB"/>
<path d="M170.646 10.0996H120.771V237.173H170.646V10.0996Z" fill="#FAFAFA"/>
<path d="M156.808 10.0996H140.911L123.516 237.173H139.413L156.808 10.0996Z" fill="#F5F5F5"/>
<path d="M171.164 10.9727H120.449V12.9737H171.164V10.9727Z" fill="#E0E0E0"/>
<path d="M171.164 235.181H120.449V239.465H171.164V235.181Z" fill="#EBEBEB"/>
<path d="M168.945 239.277H122.346V239.465H168.945V239.277Z" fill="#EBEBEB"/>
<path d="M122.346 10.972H168.945V239.276H171.731V8.16309H119.553V239.276H122.346V10.972Z" fill="#EBEBEB"/>
<path d="M224.743 10.0996H176.268V237.173H224.743V10.0996Z" fill="#FAFAFA"/>
<path d="M203.735 10.0996H200.823L183.428 237.173H186.34L203.735 10.0996Z" fill="#F5F5F5"/>
<path d="M225.266 10.9727H175.951V12.9737H225.266V10.9727Z" fill="#E0E0E0"/>
<path d="M225.266 235.181H175.951V239.465H225.266V235.181Z" fill="#EBEBEB"/>
<path d="M224.449 239.277H177.85V239.465H224.449V239.277Z" fill="#EBEBEB"/>
<path d="M177.85 10.972H224.442V239.276H227.235V8.16309H175.057V239.276H177.85V10.972Z" fill="#EBEBEB"/>
<path d="M281.645 10.0996H231.77V237.173H281.645V10.0996Z" fill="#FAFAFA"/>
<path d="M276.766 10.0996H260.869L243.467 237.173H259.371L276.766 10.0996Z" fill="#F5F5F5"/>
<path d="M280.762 10.9727H231.447V12.9737H280.762V10.9727Z" fill="#E0E0E0"/>
<path d="M280.762 235.181H231.447V239.465H280.762V235.181Z" fill="#EBEBEB"/>
<path d="M233.345 10.972H279.944V239.276H282.737V8.16309H230.559V239.276H233.345V10.972Z" fill="#EBEBEB"/>
<path d="M279.945 239.277H233.346V239.465H279.945V239.277Z" fill="#EBEBEB"/>
<path d="M103.208 184.939H81.5566V235.19H103.208V184.939Z" fill="#EBEBEB"/>
<path d="M99.0498 177.912V190.519H97.3489H87.4228H85.7148V177.912H99.0498Z" fill="#EBEBEB"/>
<path d="M99.0503 190.52H101.822V186.799H99.0503V190.52Z" fill="#FAFAFA"/>
<path d="M93.6889 190.52H96.4609V186.799H93.6889V190.52Z" fill="#FAFAFA"/>
<path d="M88.3198 190.52H91.0918V186.799H88.3198V190.52Z" fill="#FAFAFA"/>
<path d="M82.9507 190.52H85.7227V186.799H82.9507V190.52Z" fill="#F0F0F0"/>
<path d="M99.0503 197.274H101.822V193.554H99.0503V197.274Z" fill="#F0F0F0"/>
<path d="M93.6889 197.274H96.4609V193.554H93.6889V197.274Z" fill="#F0F0F0"/>
<path d="M88.3198 197.274H91.0918V193.554H88.3198V197.274Z" fill="#FAFAFA"/>
<path d="M82.9507 197.274H85.7227V193.554H82.9507V197.274Z" fill="#FAFAFA"/>
<path d="M99.0503 204.038H101.822V200.318H99.0503V204.038Z" fill="#F0F0F0"/>
<path d="M93.6889 204.038H96.4609V200.318H93.6889V204.038Z" fill="#FAFAFA"/>
<path d="M88.3198 204.038H91.0918V200.318H88.3198V204.038Z" fill="#FAFAFA"/>
<path d="M93.6889 184.676H96.4609V180.956H93.6889V184.676Z" fill="#FAFAFA"/>
<path d="M88.3198 184.676H91.0918V180.956H88.3198V184.676Z" fill="#F0F0F0"/>
<path d="M82.9507 204.038H85.7227V200.318H82.9507V204.038Z" fill="#F0F0F0"/>
<path d="M99.0503 210.803H101.822V207.083H99.0503V210.803Z" fill="#FAFAFA"/>
<path d="M93.6889 210.803H96.4609V207.083H93.6889V210.803Z" fill="#F0F0F0"/>
<path d="M88.3198 210.803H91.0918V207.083H88.3198V210.803Z" fill="#F0F0F0"/>
<path d="M82.9507 210.803H85.7227V207.083H82.9507V210.803Z" fill="#FAFAFA"/>
<path d="M99.0503 217.566H101.822V213.846H99.0503V217.566Z" fill="#F0F0F0"/>
<path d="M93.6889 217.566H96.4609V213.846H93.6889V217.566Z" fill="#FAFAFA"/>
<path d="M88.3198 217.566H91.0918V213.846H88.3198V217.566Z" fill="#FAFAFA"/>
<path d="M82.9507 217.566H85.7227V213.846H82.9507V217.566Z" fill="#F0F0F0"/>
<path d="M99.0503 224.32H101.822V220.6H99.0503V224.32Z" fill="#F0F0F0"/>
<path d="M93.6889 224.32H96.4609V220.6H93.6889V224.32Z" fill="#FAFAFA"/>
<path d="M88.3198 224.32H91.0918V220.6H88.3198V224.32Z" fill="#F0F0F0"/>
<path d="M82.9507 224.32H85.7227V220.6H82.9507V224.32Z" fill="#FAFAFA"/>
<path d="M99.0503 231.085H101.822V227.365H99.0503V231.085Z" fill="#FAFAFA"/>
<path d="M93.6889 231.085H96.4609V227.365H93.6889V231.085Z" fill="#FAFAFA"/>
<path d="M88.3198 231.085H91.0918V227.365H88.3198V231.085Z" fill="#F0F0F0"/>
<path d="M82.9507 231.085H85.7227V227.365H82.9507V231.085Z" fill="#F0F0F0"/>
<path d="M255.739 203.239H236.342V235.18H255.739V203.239Z" fill="#F0F0F0"/>
<path d="M238.027 206.79H242.535H243.781H245.02V210.116H243.781H242.535H238.027V206.79Z" fill="#E6E6E6"/>
<path d="M238.027 213.244H242.535H243.781H245.02V216.579H243.781H242.535H238.027V213.244Z" fill="#FAFAFA"/>
<path d="M238.027 219.699H242.535H243.781H245.02V223.034H243.781H242.535H238.027V219.699Z" fill="#E6E6E6"/>
<path d="M238.027 226.152H242.535H244.453H245.02V229.487H244.453H242.535H238.027V226.152Z" fill="#FAFAFA"/>
<path d="M247.051 206.79H251.566H252.805H254.044V210.116H252.805H251.566H247.051V206.79Z" fill="#FAFAFA"/>
<path d="M247.051 213.244H251.566H253.316H254.044V216.579H253.316H251.566H247.051V213.244Z" fill="#FAFAFA"/>
<path d="M247.051 219.699H251.566H252.805H254.044V223.034H252.805H251.566H247.051V219.699Z" fill="#E6E6E6"/>
<path d="M247.051 226.152H251.566H252.805H254.044V229.487H252.805H251.566H247.051V226.152Z" fill="#FAFAFA"/>
<path d="M162.267 215.339H144.641V235.189H162.267V215.339Z" fill="#F0F0F0"/>
<path d="M158.887 220.845H161.141V217.82H158.887V220.845Z" fill="#FAFAFA"/>
<path d="M154.517 220.845H156.771V217.82H154.517V220.845Z" fill="#FAFAFA"/>
<path d="M150.142 220.845H152.396V217.82H150.142V220.845Z" fill="#FAFAFA"/>
<path d="M145.775 220.845H148.029V217.82H145.775V220.845Z" fill="#FAFAFA"/>
<path d="M158.887 226.341H161.141V223.316H158.887V226.341Z" fill="#FAFAFA"/>
<path d="M154.517 226.341H156.771V223.316H154.517V226.341Z" fill="#FAFAFA"/>
<path d="M150.142 226.341H152.396V223.316H150.142V226.341Z" fill="#FAFAFA"/>
<path d="M145.775 226.341H148.029V223.316H145.775V226.341Z" fill="#E6E6E6"/>
<path d="M158.887 231.845H161.141V228.82H158.887V231.845Z" fill="#E6E6E6"/>
<path d="M154.517 231.845H156.771V228.82H154.517V231.845Z" fill="#E6E6E6"/>
<path d="M150.142 231.845H152.396V228.82H150.142V231.845Z" fill="#FAFAFA"/>
<path d="M145.775 231.845H148.029V228.82H145.775V231.845Z" fill="#E6E6E6"/>
<path d="M142.255 200.665H124.629V235.19H142.255V200.665Z" fill="#F0F0F0"/>
<path d="M141.127 202.179H134.498V210.709H141.127V202.179Z" fill="#FAFAFA"/>
<path d="M132.385 202.179H125.756V210.709H132.385V202.179Z" fill="#FAFAFA"/>
<path d="M141.127 213.179H134.498V221.709H141.127V213.179Z" fill="#FAFAFA"/>
<path d="M132.385 213.179H125.756V221.709H132.385V213.179Z" fill="#FAFAFA"/>
<path d="M141.127 224.18H134.498V232.71H141.127V224.18Z" fill="#FAFAFA"/>
<path d="M132.385 224.18H125.756V232.71H132.385V224.18Z" fill="#FAFAFA"/>
<path d="M175 350C249.958 350 310.723 345.239 310.723 339.366C310.723 333.493 249.958 328.731 175 328.731C100.043 328.731 39.2773 333.493 39.2773 339.366C39.2773 345.239 100.043 350 175 350Z" fill="#F5F5F5"/>
<path d="M311.199 23.1201V230.024L292.649 254.919H185.262V23.1201H311.199Z" fill="#A210C6"/>
<path opacity="0.8" d="M311.199 23.1201V230.024L292.649 254.919H185.262V23.1201H311.199Z" fill="white"/>
<path opacity="0.2" d="M292.648 254.919V230.757H311.198L293.012 255.164" fill="black"/>
<path opacity="0.1" d="M232.917 43.2155H198.183C197.695 43.2155 197.226 42.9552 196.881 42.4919C196.536 42.0285 196.342 41.4001 196.342 40.7448C196.341 40.4195 196.388 40.0972 196.48 39.7964C196.572 39.4955 196.708 39.222 196.879 38.9916C197.05 38.7612 197.253 38.5784 197.477 38.4536C197.701 38.3289 197.94 38.2646 198.183 38.2646H232.917C233.406 38.2671 233.874 38.5295 234.219 38.9944C234.564 39.4592 234.758 40.0886 234.758 40.7448C234.758 41.4001 234.564 42.0285 234.219 42.4919C233.873 42.9552 233.405 43.2155 232.917 43.2155Z" fill="black"/>
<path opacity="0.1" d="M295.917 63.2624H212.183C211.94 63.2624 211.701 63.1982 211.477 63.0734C211.253 62.9487 211.05 62.7658 210.879 62.5354C210.708 62.305 210.572 62.0315 210.48 61.7307C210.388 61.4298 210.341 61.1075 210.342 60.7823C210.342 60.127 210.536 59.4985 210.881 59.0352C211.226 58.5718 211.695 58.3115 212.183 58.3115H295.917C296.405 58.3115 296.873 58.5718 297.219 59.0352C297.564 59.4985 297.758 60.127 297.758 60.7823C297.758 61.4384 297.564 62.0678 297.219 62.5327C296.874 62.9975 296.406 63.2599 295.917 63.2624Z" fill="black"/>
<path opacity="0.1" d="M295.917 73.0046H198.183C197.695 73.0046 197.226 72.7443 196.881 72.2809C196.536 71.8176 196.342 71.1891 196.342 70.5338C196.341 70.2086 196.388 69.8863 196.48 69.5854C196.572 69.2846 196.708 69.0111 196.879 68.7807C197.05 68.5503 197.253 68.3674 197.477 68.2427C197.701 68.1179 197.94 68.0537 198.183 68.0537H295.917C296.406 68.0562 296.874 68.3186 297.219 68.7834C297.564 69.2483 297.758 69.8777 297.758 70.5338C297.758 71.1891 297.564 71.8176 297.219 72.2809C296.873 72.7443 296.405 73.0046 295.917 73.0046Z" fill="black"/>
<path opacity="0.1" d="M295.917 84.0153H198.183C197.94 84.0153 197.701 83.9511 197.477 83.8264C197.253 83.7016 197.05 83.5188 196.879 83.2883C196.708 83.0579 196.572 82.7844 196.48 82.4836C196.388 82.1827 196.341 81.8604 196.342 81.5352C196.342 80.8799 196.536 80.2515 196.881 79.7881C197.226 79.3248 197.695 79.0645 198.183 79.0645H295.917C296.405 79.0645 296.873 79.3248 297.219 79.7881C297.564 80.2515 297.758 80.8799 297.758 81.5352C297.758 82.1913 297.564 82.8207 297.219 83.2856C296.874 83.7504 296.406 84.0128 295.917 84.0153Z" fill="black"/>
<path opacity="0.1" d="M295.917 95.0157H198.183C197.695 95.0157 197.226 94.7554 196.881 94.292C196.536 93.8287 196.342 93.2002 196.342 92.545C196.342 91.8897 196.536 91.2612 196.881 90.7979C197.226 90.3345 197.695 90.0742 198.183 90.0742H295.917C296.405 90.0742 296.873 90.3345 297.219 90.7979C297.564 91.2612 297.758 91.8897 297.758 92.545C297.758 93.2002 297.564 93.8287 297.219 94.292C296.873 94.7554 296.405 95.0157 295.917 95.0157Z" fill="black"/>
<path opacity="0.1" d="M295.917 106.025H198.183C197.695 106.025 197.226 105.765 196.881 105.302C196.536 104.838 196.342 104.21 196.342 103.555C196.341 103.23 196.388 102.908 196.48 102.608C196.572 102.307 196.708 102.035 196.879 101.805C197.05 101.575 197.253 101.393 197.477 101.27C197.701 101.146 197.941 101.083 198.183 101.084H295.917C296.405 101.084 296.873 101.344 297.219 101.808C297.564 102.271 297.758 102.899 297.758 103.555C297.758 104.21 297.564 104.838 297.219 105.302C296.873 105.765 296.405 106.025 295.917 106.025Z" fill="black"/>
<path opacity="0.1" d="M295.917 117.037H198.183C197.695 117.037 197.226 116.777 196.881 116.313C196.536 115.85 196.342 115.221 196.342 114.566C196.341 114.241 196.388 113.919 196.48 113.618C196.572 113.317 196.708 113.043 196.879 112.813C197.05 112.583 197.253 112.4 197.477 112.275C197.701 112.15 197.94 112.086 198.183 112.086H295.917C296.406 112.088 296.874 112.351 297.219 112.816C297.564 113.281 297.758 113.91 297.758 114.566C297.758 115.221 297.564 115.85 297.219 116.313C296.873 116.777 296.405 117.037 295.917 117.037Z" fill="black"/>
<path opacity="0.1" d="M295.924 123.096H198.183C197.166 123.096 196.342 124.202 196.342 125.566V125.576C196.342 126.94 197.166 128.047 198.183 128.047H295.924C296.941 128.047 297.765 126.94 297.765 125.576V125.566C297.765 124.202 296.941 123.096 295.924 123.096Z" fill="black"/>
<path opacity="0.1" d="M295.917 139.037H198.183C197.695 139.037 197.226 138.777 196.881 138.314C196.536 137.85 196.342 137.222 196.342 136.566C196.342 135.911 196.536 135.283 196.881 134.819C197.226 134.356 197.695 134.096 198.183 134.096H295.917C296.405 134.096 296.873 134.356 297.219 134.819C297.564 135.283 297.758 135.911 297.758 136.566C297.758 137.222 297.564 137.85 297.219 138.314C296.873 138.777 296.405 139.037 295.917 139.037Z" fill="black"/>
<path opacity="0.1" d="M295.917 150.059H198.183C197.695 150.059 197.226 149.798 196.881 149.335C196.536 148.872 196.342 148.243 196.342 147.588C196.341 147.263 196.388 146.941 196.48 146.641C196.572 146.341 196.708 146.068 196.879 145.838C197.05 145.608 197.253 145.426 197.477 145.303C197.701 145.179 197.941 145.116 198.183 145.117H295.917C296.405 145.117 296.873 145.378 297.219 145.841C297.564 146.304 297.758 146.933 297.758 147.588C297.758 148.243 297.564 148.872 297.219 149.335C296.873 149.798 296.405 150.059 295.917 150.059Z" fill="black"/>
<path opacity="0.1" d="M295.917 161.068H198.183C197.695 161.068 197.226 160.808 196.881 160.344C196.536 159.881 196.342 159.253 196.342 158.597C196.341 158.272 196.388 157.95 196.48 157.649C196.572 157.348 196.708 157.075 196.879 156.844C197.05 156.614 197.253 156.431 197.477 156.306C197.701 156.181 197.94 156.117 198.183 156.117H295.917C296.406 156.12 296.874 156.382 297.219 156.847C297.564 157.312 297.758 157.941 297.758 158.597C297.758 159.253 297.564 159.881 297.219 160.344C296.873 160.808 296.405 161.068 295.917 161.068Z" fill="black"/>
<path opacity="0.1" d="M295.917 172.079H198.183C197.94 172.079 197.701 172.015 197.477 171.89C197.253 171.765 197.05 171.582 196.879 171.352C196.708 171.121 196.572 170.848 196.48 170.547C196.388 170.246 196.341 169.924 196.342 169.599C196.342 168.943 196.536 168.315 196.881 167.852C197.226 167.388 197.695 167.128 198.183 167.128H295.917C296.405 167.128 296.873 167.388 297.219 167.852C297.564 168.315 297.758 168.943 297.758 169.599C297.758 170.255 297.564 170.884 297.219 171.349C296.874 171.814 296.406 172.076 295.917 172.079Z" fill="black"/>
<path opacity="0.1" d="M239.917 183.079H198.183C197.695 183.079 197.226 182.819 196.881 182.356C196.536 181.892 196.342 181.264 196.342 180.608C196.342 179.953 196.536 179.325 196.881 178.861C197.226 178.398 197.695 178.138 198.183 178.138H239.917C240.405 178.138 240.873 178.398 241.219 178.861C241.564 179.325 241.758 179.953 241.758 180.608C241.758 181.264 241.564 181.892 241.219 182.356C240.873 182.819 240.405 183.079 239.917 183.079Z" fill="black"/>
<path d="M288.399 73.8224L288.266 73.672C287.888 73.2869 287.671 73.4184 287.496 72.6762C287.37 72.1407 287.496 71.5395 287.349 70.9852C287.016 70.0311 286.635 69.1084 286.208 68.2233L284.486 64.0615C284.102 63.14 283.461 62.4604 282.704 62.1717C281.947 61.8829 281.135 62.0084 280.447 62.5208L264.592 74.3766C264.529 75.0906 264.088 75.5791 263.997 76.2555C263.966 76.4554 263.974 76.6628 264.021 76.8572C264.067 77.0516 264.151 77.2263 264.263 77.3641C264.085 77.3593 263.913 77.2769 263.773 77.1292C262.828 76.4246 262.576 75.8609 261.603 76.5749C261.183 76.8755 260.77 77.195 260.357 77.5144L256.157 80.6615L242.997 90.4975L227.597 102.034L214.766 111.626C213.016 112.931 210.895 114.078 209.334 115.74C209.768 116.041 209.845 116.501 209.46 116.952L208.76 117.807C208.76 118.042 209.012 118.042 209.173 117.948L210.041 117.45C209.438 118.478 208.712 119.364 207.892 120.071C206.516 121.144 205.037 121.959 203.496 122.495L204.238 121.246C204.294 121.142 204.364 121.011 204.315 120.889C204.266 120.766 204.175 120.757 204.091 120.748C203.72 120.691 203.349 120.748 203.076 120.381C200.682 122.26 198.176 124.045 195.74 125.868C195.054 126.384 194.547 127.244 194.332 128.26C194.117 129.276 194.21 130.365 194.592 131.288L210.58 169.805C210.769 170.262 211.024 170.665 211.329 170.99C211.634 171.314 211.984 171.555 212.358 171.698C212.733 171.841 213.125 171.884 213.511 171.824C213.898 171.763 214.272 171.601 214.612 171.346L218.819 168.161C218.819 167.494 219.211 166.752 218.917 166.142C218.876 166.067 218.849 165.98 218.84 165.888C218.84 165.766 218.924 165.672 219.001 165.606C219.432 165.239 219.926 165.025 220.436 164.986C220.611 164.986 220.842 165.089 220.814 165.315C220.814 165.108 221.717 164.676 221.864 164.61C221.934 165.118 221.675 165.663 222.116 165.766C222.557 165.869 223.229 164.826 223.516 164.639L227.716 161.491L241.016 151.561L255.604 140.654L265.299 133.402C265.649 133.13 266.062 132.81 266.398 132.585C266.52 131.723 266.832 130.931 267.294 130.311C267.994 129.663 269.1 130.377 269.681 129.456C269.793 129.278 269.863 129.062 269.961 128.874C270.157 128.568 270.395 128.316 270.661 128.132C270.83 127.953 271.035 127.846 271.249 127.822C271.459 127.822 271.683 128.057 271.655 128.338C273.097 127.887 274.399 126.582 275.673 125.614C276.135 125.266 280.188 122.711 280.174 122.307C280.118 121.058 280.685 119.987 280.657 118.7C280.657 118.455 280.3 116.821 280.461 116.699C276.821 119.611 273.041 122.26 269.331 125.022C269.205 125.125 268.729 125.342 268.631 125.529C268.631 125.529 268.596 125.614 268.582 125.661L268.477 125.971V126.046C268.327 126.685 268.149 127.313 267.945 127.925C267.945 128.01 267.154 129.325 267.091 129.015C266.783 127.502 266.391 127.267 265.53 127.887L264.298 128.827L260.385 131.749L247.204 141.613L231.671 153.224L218.728 162.901L213.303 166.95C212.221 164.319 211.131 161.692 210.034 159.068L207.934 154.004C207.722 153.302 207.408 152.663 207.01 152.125C206.709 151.824 206.198 151.9 205.932 151.627C205.281 150.96 204.812 149.748 204.196 148.969C203.776 148.443 203.139 146.864 203.314 145.991C203.524 146.103 203.734 146.225 203.944 146.31C203.834 145.732 203.859 145.122 204.014 144.563C201.914 139.818 199.982 134.858 197.973 130.011L197.84 129.701L202.74 126.037L206.317 123.359C207.053 122.935 207.756 122.416 208.417 121.809C208.872 121.283 209.334 120.626 209.817 120.062C210.141 119.731 210.494 119.453 210.867 119.235L212.19 118.371C212.258 118.316 212.335 118.284 212.414 118.277C212.493 118.288 212.571 118.314 212.645 118.352C213.345 118.549 215.081 116.811 215.711 116.342L219.785 113.298L232.077 104.101L247.393 92.6582L262.723 81.1876L275.057 71.9716L281.357 67.2744L281.651 67.0583L288.462 83.4705C288.884 84.5767 289.558 85.4724 290.387 86.0258C290.667 86.1479 290.982 86.4109 290.947 86.7961C290.912 87.1813 290.492 87.5007 290.59 87.8952C290.688 88.2898 291.227 88.1395 291.353 88.4965C291.479 88.8535 291.136 89.4359 291.178 89.9244C291.323 90.5093 291.538 91.0583 291.815 91.5497L293.796 96.3315C294.902 98.9807 296.001 101.639 297.114 104.317L285.004 113.373C285.064 113.438 285.114 113.518 285.151 113.608L285.214 113.824C285.455 113.938 285.689 114.076 285.914 114.237C286.011 114.31 286.091 114.416 286.145 114.546C286.199 114.675 286.226 114.822 286.222 114.97C286.221 115.117 286.19 115.26 286.133 115.386C286.077 115.511 285.996 115.614 285.9 115.684L285.158 116.248C285.132 116.466 285.057 116.667 284.943 116.827C284.829 116.986 284.682 117.095 284.521 117.14C284.435 117.15 284.348 117.15 284.262 117.14C284.189 117.213 284.104 117.263 284.015 117.287C283.925 117.311 283.833 117.309 283.744 117.281C283.586 117.216 283.452 117.071 283.371 116.877C283.291 116.682 283.269 116.454 283.31 116.238C283.339 116.142 283.377 116.05 283.422 115.966C283.369 115.829 283.345 115.675 283.352 115.521C283.36 115.367 283.399 115.219 283.464 115.092H283.24C283.114 115.092 283.002 114.998 282.883 114.951C282.254 115.473 281.764 116.249 281.483 117.168C281.453 117.218 281.438 117.282 281.441 117.347C281.441 117.478 281.595 117.488 281.686 117.544C281.896 117.676 281.847 118.089 281.742 118.361C281.637 118.634 281.511 118.981 281.651 119.226C281.704 119.308 281.763 119.383 281.826 119.451C282.127 119.912 281.665 121.246 282.4 120.701C282.349 120.411 282.381 120.105 282.491 119.846C282.616 119.584 282.808 119.394 283.03 119.31C283.574 119.133 284.13 119.026 284.689 118.991L299.284 108.037C299.971 107.521 300.477 106.661 300.692 105.645C300.908 104.629 300.814 103.54 300.432 102.616L300.348 102.419L293.754 86.533L289.946 77.3453C289.575 76.4716 289.246 75.5603 288.84 74.696C288.729 74.3753 288.58 74.0804 288.399 73.8224Z" fill="#A210C6"/>
<path d="M220.962 125.726C220.479 124.937 220.626 124.918 220.535 124.072C220.535 124.072 220.535 124.072 220.535 124.016L220.479 123.931L220.395 123.8C220.066 123.997 219.737 124.213 219.408 124.457L212.961 129.277L215.558 135.524C215.194 134.66 216.482 134.913 216.531 134.904C216.668 134.85 216.809 134.818 216.951 134.81C217.091 134.85 217.214 134.961 217.294 135.12C217.563 135.752 217.643 136.498 217.518 137.206C217.441 138.145 217.812 139.085 217.413 140.024C217.756 140.776 220.857 148.347 220.871 148.338L227.318 143.519C227.689 143.237 228.571 142.739 228.788 142.241C229.005 141.743 228.662 140.963 229.047 140.729C229.192 140.657 229.347 140.63 229.501 140.65C229.655 140.669 229.803 140.735 229.936 140.841C231.164 139.21 231.953 137.077 232.18 134.778C232.407 132.479 232.058 130.144 231.189 128.14C229.376 123.772 225.26 121.169 221.655 123.199C221.403 123.339 221.739 124.852 221.137 125.021C221.252 124.718 221.417 124.455 221.62 124.251M225.638 139.977L222.635 142.222C222.39 141.63 222.152 141.039 221.9 140.466C222.215 141.18 221.347 140.954 221.165 140.794C220.724 140.4 220.605 139.263 220.591 138.624C220.58 137.529 220.338 136.46 219.891 135.543C219.186 133.833 218.486 132.123 217.791 130.413L220.794 128.168C223.594 126.064 226.394 126.938 227.906 130.583C229.418 134.228 228.459 137.901 225.638 139.977Z" fill="#A210C6"/>
<path d="M242.277 109.726C242.43 110.173 242.474 110.672 242.403 111.154C242.368 111.417 242.053 112.094 242.095 112.263C242.207 112.639 242.319 113.014 242.424 113.39C242.443 113.452 242.469 113.509 242.501 113.559C242.555 113.608 242.618 113.634 242.683 113.634C243.796 113.766 243.747 113.916 243.817 115.175C243.88 116.256 244.573 116.876 244.965 117.815C245.491 119.049 245.72 120.472 245.62 121.888C245.519 123.304 245.095 124.643 244.404 125.722C243.714 126.801 242.791 127.567 241.764 127.914C240.736 128.261 239.653 128.172 238.665 127.66C238.639 127.694 238.61 127.726 238.581 127.754C238.434 127.854 238.265 127.88 238.105 127.83C237.741 127.691 237.411 127.424 237.151 127.055C236.891 126.686 236.711 126.23 236.628 125.735C236.617 125.66 236.617 125.584 236.628 125.509C236.43 125.18 236.254 124.828 236.103 124.457C235.743 123.681 235.507 122.813 235.408 121.909C235.31 121.004 235.352 120.082 235.531 119.2C235.71 118.318 236.024 117.496 236.451 116.784C236.878 116.072 237.41 115.486 238.014 115.062C238.889 114.392 239.893 114.085 240.898 114.179L240.842 114.067C240.24 112.996 242.41 112.564 241.43 111.84C241.017 111.54 241.087 110.177 240.982 109.623C239.392 109.671 237.835 110.249 236.453 111.305C231.973 114.658 230.426 121.3 232.778 126.965C233.767 129.402 235.404 131.25 237.363 132.142C237.823 132.411 238.317 132.564 238.819 132.592C239.393 132.527 239.113 132.592 239.358 132.132C239.603 131.672 239.456 131.475 239.827 130.986C240.198 130.498 240.632 130.206 240.709 129.455C240.709 129.793 240.989 130.037 240.989 130.394C240.989 130.498 240.989 130.601 240.989 130.695C241.004 130.818 241.045 130.932 241.108 131.024C241.346 131.456 241.745 131.963 241.752 132.461C242.776 132.233 243.759 131.749 244.65 131.033C249.109 127.698 250.691 121.065 248.325 115.382C247.1 112.479 244.797 109.914 242.277 109.726Z" fill="#A210C6"/>
<path d="M256.592 96.6508L261.394 108.215L249.536 101.921L246.82 103.96C248.654 108.375 250.6 112.744 252.322 117.243C252.441 116.755 252.721 116.661 253.057 116.595C253.687 116.482 253.666 116.905 254.009 117.741C254.051 117.845 254.1 117.948 254.177 117.967C254.254 117.986 254.408 117.816 254.534 117.835C254.66 117.854 254.709 118.061 254.674 118.22C254.63 118.377 254.571 118.525 254.499 118.662C254.296 119.179 254.632 119.508 254.59 119.977C254.59 120.221 253.981 121.217 254.051 121.386L254.751 123.002L257.999 120.578L257.131 118.493H256.97C256.025 118.662 256.445 116.999 256.235 116.313C255.895 115.342 255.51 114.401 255.08 113.495L253.169 108.976L262.808 114.068C262.783 113.697 262.817 113.322 262.906 112.969C262.983 112.772 263.606 112.405 263.606 112.217C263.642 112.823 263.853 113.386 264.194 113.786C264.565 114.228 264.565 114.162 264.495 114.942L265.069 115.252L267.771 113.232L259.861 94.1895L256.592 96.6508Z" fill="#A210C6"/>
<path d="M272.909 104.777L271.075 100.371L277.669 95.439L276.269 92.01L269.682 96.9421L267.967 92.7991L272.419 89.4735C272.607 89.1481 272.846 88.8819 273.119 88.6938C273.258 88.5985 273.417 88.575 273.567 88.628L275.45 87.2282C275.45 87.2282 274.113 84.0247 273.987 83.6865C273.343 84.0811 273.987 85.1708 273.336 85.6969C273.469 85.8848 273.665 86.5518 273.336 86.6364C273.147 86.6364 273.007 86.317 272.818 86.3452C272.629 86.3733 272.622 86.4955 272.524 86.4579C272.495 86.4466 272.467 86.4264 272.444 86.3987C272.421 86.371 272.403 86.3366 272.391 86.2982C272.301 86.0149 272.186 85.7468 272.048 85.4996C271.607 84.9266 267.582 88.5247 267.022 88.9474L263.277 91.7657L271.18 110.808L274.337 108.45L274.4 108.338C274.631 107.943 274.855 107.539 275.1 107.173C275.2 107.046 275.327 106.965 275.463 106.943C275.599 106.921 275.737 106.959 275.856 107.051C275.913 107.09 275.963 107.144 276.003 107.21L282.17 102.598L280.7 99.0558L272.909 104.777Z" fill="#A210C6"/>
<path d="M281.33 307.395C281.33 307.395 276.724 293.923 281.981 280.63C287.238 267.337 288.771 264.208 285.418 261.493C282.065 258.778 280.518 272.118 280.518 272.118C280.518 272.118 277.718 262.931 280.021 253.329C282.324 243.728 283.822 228.058 280.637 226.377C277.452 224.695 280.028 245.908 277.263 253.142C275.853 248.064 274.942 242.762 274.554 237.368C274.176 229.646 274.771 217.321 272.251 214.155C269.731 210.989 268.128 213.215 270.599 230.219C272.084 240.403 272.906 250.742 273.056 261.117C273.056 261.117 267.589 238.759 263.956 238.11C260.323 237.462 260.295 244.687 263.438 250.971C266.581 257.256 272.601 268.492 273.588 274.317C273.588 274.317 267.596 257.501 262.199 262.649C256.802 267.797 266.896 277.971 271.39 281.644C275.884 285.318 279.013 308.325 279.013 308.325L281.33 307.395Z" fill="#A210C6"/>
<path opacity="0.2" d="M281.33 307.395C281.33 307.395 276.724 293.923 281.981 280.63C287.238 267.337 288.771 264.208 285.418 261.493C282.065 258.778 280.518 272.118 280.518 272.118C280.518 272.118 277.718 262.931 280.021 253.329C282.324 243.728 283.822 228.058 280.637 226.377C277.452 224.695 280.028 245.908 277.263 253.142C275.853 248.064 274.942 242.762 274.554 237.368C274.176 229.646 274.771 217.321 272.251 214.155C269.731 210.989 268.128 213.215 270.599 230.219C272.084 240.403 272.906 250.742 273.056 261.117C273.056 261.117 267.589 238.759 263.956 238.11C260.323 237.462 260.295 244.687 263.438 250.971C266.581 257.256 272.601 268.492 273.588 274.317C273.588 274.317 267.596 257.501 262.199 262.649C256.802 267.797 266.896 277.971 271.39 281.644C275.884 285.318 279.013 308.325 279.013 308.325L281.33 307.395Z" fill="black"/>
<path d="M277.69 312.928C277.69 312.928 282.177 299.353 276.801 286.173C271.425 272.992 269.864 269.892 273.196 267.102C276.528 264.312 278.18 277.633 278.18 277.633C278.18 277.633 280.924 268.398 278.509 258.844C276.094 249.29 274.484 233.648 277.655 231.91C280.826 230.172 278.439 251.432 281.267 258.6C282.633 253.499 283.494 248.181 283.829 242.78C284.144 235.048 283.437 222.732 285.929 219.519C288.421 216.306 290.052 218.467 287.728 235.555C286.335 245.763 285.607 256.114 285.551 266.491C285.551 266.491 290.815 244.029 294.476 243.306C298.137 242.582 298.193 249.816 295.113 256.157C292.033 262.499 286.083 273.866 285.138 279.643C285.138 279.643 290.983 262.733 296.422 267.759C301.861 272.785 291.865 283.166 287.406 286.924C282.947 290.682 280 313.773 280 313.773L277.69 312.928Z" fill="#A210C6"/>
<path d="M298.368 303.252H261.338L264.334 338.819H295.372L298.368 303.252Z" fill="#263238"/>
<path d="M108.941 79.6172H84.5041C83.5628 79.6172 82.6601 80.119 81.9946 81.0122C81.329 81.9055 80.9551 83.117 80.9551 84.3802V116.265C80.9551 117.528 81.329 118.74 81.9946 119.633C82.6601 120.526 83.5628 121.028 84.5041 121.028H92.3231L87.0591 130.629L96.1591 121.028H108.934C109.875 121.028 110.778 120.526 111.444 119.633C112.109 118.74 112.483 117.528 112.483 116.265V84.3802C112.483 83.1186 112.11 81.9085 111.446 81.0155C110.782 80.1226 109.881 79.6197 108.941 79.6172Z" fill="#A210C6"/>
<path opacity="0.6" d="M108.941 79.6172H84.5041C83.5628 79.6172 82.6601 80.119 81.9946 81.0122C81.329 81.9055 80.9551 83.117 80.9551 84.3802V116.265C80.9551 117.528 81.329 118.74 81.9946 119.633C82.6601 120.526 83.5628 121.028 84.5041 121.028H92.3231L87.0591 130.629L96.1591 121.028H108.934C109.875 121.028 110.778 120.526 111.444 119.633C112.109 118.74 112.483 117.528 112.483 116.265V84.3802C112.483 83.1186 112.11 81.9085 111.446 81.0155C110.782 80.1226 109.881 79.6197 108.941 79.6172Z" fill="white"/>
<path d="M96.7259 115.212C102.853 115.212 107.821 108.545 107.821 100.322C107.821 92.0982 102.853 85.4316 96.7259 85.4316C90.5983 85.4316 85.6309 92.0982 85.6309 100.322C85.6309 108.545 90.5983 115.212 96.7259 115.212Z" fill="#A210C6"/>
<path opacity="0.2" d="M105.982 103.245C107.189 96.383 104.022 89.5068 98.9084 87.8871C93.795 86.2674 88.6714 90.5175 87.4645 97.38C86.2577 104.243 89.4245 111.119 94.5379 112.738C99.6513 114.358 104.775 110.108 105.982 103.245Z" fill="black"/>
<path d="M95.543 106.42C95.4141 106.423 95.2859 106.393 95.1658 106.33C95.0457 106.267 94.936 106.173 94.843 106.053L90.804 100.745C90.6184 100.504 90.5119 100.173 90.5079 99.8259C90.504 99.4788 90.6029 99.1439 90.783 98.8947C90.9631 98.6456 91.2096 98.5026 91.4682 98.4973C91.7268 98.492 91.9764 98.6248 92.162 98.8665L95.473 103.216L101.199 94.639C101.375 94.4015 101.611 94.2635 101.861 94.2535C102.11 94.2435 102.352 94.3622 102.538 94.5851C102.724 94.808 102.839 95.1182 102.859 95.4516C102.88 95.785 102.804 96.1163 102.648 96.377L96.243 105.969C96.1547 106.101 96.0469 106.208 95.9265 106.283C95.8061 106.357 95.6756 106.397 95.543 106.401V106.42Z" fill="white"/>
<path d="M65.0303 317.455L85.1973 314.787V284.265H93.1913V314.778L113.442 317.455C114.413 317.581 115.313 318.188 115.968 319.158C116.623 320.127 116.985 321.389 116.984 322.697V326.765H61.4883V322.697C61.4872 321.389 61.8495 320.127 62.5044 319.158C63.1593 318.188 64.0599 317.581 65.0303 317.455Z" fill="#263238"/>
<path opacity="0.1" d="M65.0303 317.455L85.1973 314.787V284.265H93.1913V314.778L113.442 317.455C114.413 317.581 115.313 318.188 115.968 319.158C116.623 320.127 116.985 321.389 116.984 322.697V326.765H61.4883V322.697C61.4872 321.389 61.8495 320.127 62.5044 319.158C63.1593 318.188 64.0599 317.581 65.0303 317.455Z" fill="white"/>
<path d="M114.85 338.819C117.738 338.819 120.079 335.678 120.079 331.802C120.079 327.926 117.738 324.784 114.85 324.784C111.962 324.784 109.621 327.926 109.621 331.802C109.621 335.678 111.962 338.819 114.85 338.819Z" fill="#263238"/>
<path d="M63.6235 338.819C66.5114 338.819 68.8525 335.678 68.8525 331.802C68.8525 327.926 66.5114 324.784 63.6235 324.784C60.7356 324.784 58.3945 327.926 58.3945 331.802C58.3945 335.678 60.7356 338.819 63.6235 338.819Z" fill="#263238"/>
<path d="M91.6735 292.438H86.6895C85.9227 292.438 85.1874 292.029 84.6452 291.301C84.103 290.573 83.7985 289.587 83.7985 288.558V258.552H94.5645V288.558C94.5645 289.587 94.2599 290.573 93.7177 291.301C93.1755 292.029 92.4402 292.438 91.6735 292.438Z" fill="#263238"/>
<path opacity="0.2" d="M91.6735 292.438H86.6895C85.9227 292.438 85.1874 292.029 84.6452 291.301C84.103 290.573 83.7985 289.587 83.7985 288.558V258.552H94.5645V288.558C94.5645 289.587 94.2599 290.573 93.7177 291.301C93.1755 292.029 92.4402 292.438 91.6735 292.438Z" fill="white"/>
<path d="M61.2798 199.744C61.2798 199.744 67.2718 249.892 79.1018 258.563H67.0758C67.0758 258.563 55.1758 241.465 51.5918 199.744H61.2798Z" fill="#263238"/>
<path opacity="0.1" d="M61.2798 199.744C61.2798 199.744 67.2718 249.892 79.1018 258.563H67.0758C67.0758 258.563 55.1758 241.465 51.5918 199.744H61.2798Z" fill="white"/>
<path d="M66.5 251.469H113.344C114.272 251.469 115.162 251.964 115.819 252.845C116.475 253.725 116.844 254.92 116.844 256.166V262.451H63V256.166C63 254.92 63.3687 253.725 64.0251 252.845C64.6815 251.964 65.5717 251.469 66.5 251.469Z" fill="#A210C6"/>
<path d="M117.656 256.955H62.1394C61.3624 256.955 60.7324 257.801 60.7324 258.843V260.553C60.7324 261.596 61.3624 262.441 62.1394 262.441H117.656C118.433 262.441 119.063 261.596 119.063 260.553V258.843C119.063 257.801 118.433 256.955 117.656 256.955Z" fill="#263238"/>
<path opacity="0.6" d="M117.656 256.955H62.1394C61.3624 256.955 60.7324 257.801 60.7324 258.843V260.553C60.7324 261.596 61.3624 262.441 62.1394 262.441H117.656C118.433 262.441 119.063 261.596 119.063 260.553V258.843C119.063 257.801 118.433 256.955 117.656 256.955Z" fill="white"/>
<path d="M50.1699 209.945H69.4129C75.0549 209.945 78.7159 203.877 77.5959 196.389L76.0979 186.393C74.9779 178.878 69.4969 172.847 63.8619 172.847H44.6189C38.9769 172.847 35.3159 178.915 36.4359 186.393L37.9339 196.389C39.0539 203.858 44.5279 209.945 50.1699 209.945Z" fill="#A210C6"/>
<path d="M152.279 293.941L147.869 296.261L144.698 288.238L141.814 280.939L146.7 277.012L149.654 285.965L152.279 293.941Z" fill="#E4897B"/>
<path opacity="0.2" d="M149.654 285.965L144.698 288.238L141.814 280.939L146.7 277.012L149.654 285.965Z" fill="black"/>
<path d="M148.736 281.587L142.737 285.909C142.737 285.909 120.064 232.407 116.578 232.858C113.092 233.309 80.017 261.587 69.93 251.14C59.843 240.693 69.657 209.241 69.657 209.241C69.657 209.241 90.524 201.237 92.757 207.362C93.3455 209.196 93.8459 211.079 94.255 212.998C94.696 214.924 95.032 216.55 95.032 216.55C95.669 216.202 116.277 204.863 125.475 210.913C134.862 217.132 148.736 281.587 148.736 281.587Z" fill="#263238"/>
<path opacity="0.3" d="M148.736 281.587L142.737 285.909C142.737 285.909 120.064 232.407 116.578 232.858C113.092 233.309 80.017 261.587 69.93 251.14C59.843 240.693 69.657 209.241 69.657 209.241C69.657 209.241 90.524 201.237 92.757 207.362C93.3455 209.196 93.8459 211.079 94.255 212.998C94.696 214.924 95.032 216.55 95.032 216.55C95.669 216.202 116.277 204.863 125.475 210.913C134.862 217.132 148.736 281.587 148.736 281.587Z" fill="white"/>
<path d="M116.145 325.215L111.441 324.492L111.413 315.586L111.406 307.413L117.097 307.056L116.593 316.666L116.145 325.215Z" fill="#E4897B"/>
<path opacity="0.2" d="M116.578 316.864L111.398 315.755V307.498L117.089 307.094L116.578 316.864Z" fill="black"/>
<path d="M139.805 283.25L148.583 277.351L149.5 282.348L142.85 286.952L139.805 283.25Z" fill="#A210C6"/>
<path d="M85.5137 251.225C85.5137 251.225 86.9557 251.009 109.139 245.495C109.139 245.495 109.643 283.561 110.693 311.942L117.525 312.233C117.525 312.233 127.325 249.29 126.17 239.745C125.015 230.201 116.587 228.951 116.587 228.951C116.587 228.951 101.95 244.255 85.5137 251.225Z" fill="#263238"/>
<path opacity="0.4" d="M85.5137 251.225C85.5137 251.225 86.9557 251.009 109.139 245.495C109.139 245.495 109.643 283.561 110.693 311.942L117.525 312.233C117.525 312.233 127.325 249.29 126.17 239.745C125.015 230.201 116.587 228.951 116.587 228.951C116.587 228.951 101.95 244.255 85.5137 251.225Z" fill="white"/>
<path opacity="0.3" d="M85.5137 251.225C85.5137 251.225 86.9557 251.009 109.139 245.495C109.139 245.495 109.643 283.561 110.693 311.942L117.525 312.233C117.525 312.233 127.325 249.29 126.17 239.745C125.015 230.201 116.587 228.951 116.587 228.951C116.587 228.951 101.95 244.255 85.5137 251.225Z" fill="black"/>
<path d="M109.439 309.405L118.756 309.113L117.482 314.261L109.922 314.355L109.439 309.405Z" fill="#A210C6"/>
<path opacity="0.3" d="M95.0617 216.569L82.9727 222.346C82.9727 222.346 89.3287 215.977 94.2847 213.018C94.7257 214.943 95.0617 216.569 95.0617 216.569Z" fill="black"/>
<path d="M68.2578 207.305L68.7058 211.804L91.3648 205.35L90.8398 200.033L68.2578 207.305Z" fill="#263238"/>
<path opacity="0.2" d="M68.2578 207.305L68.7058 211.804L91.3648 205.35L90.8398 200.033L68.2578 207.305Z" fill="black"/>
<path d="M75.7655 204.036L74.6367 204.317L75.7029 212.03L76.8316 211.749L75.7655 204.036Z" fill="#263238"/>
<path d="M85.6471 202.085L80.7031 203.58L81.548 208.611L86.492 207.116L85.6471 202.085Z" fill="white"/>
<path d="M88.8243 198.942L87.6992 199.22L88.7513 206.907L89.8764 206.63L88.8243 198.942Z" fill="#263238"/>
<path opacity="0.3" d="M75.7655 204.036L74.6367 204.317L75.7029 212.03L76.8316 211.749L75.7655 204.036Z" fill="white"/>
<path opacity="0.3" d="M88.8243 198.942L87.6992 199.22L88.7513 206.907L89.8764 206.63L88.8243 198.942Z" fill="white"/>
<path d="M161.043 304.445C160.307 304.142 159.536 304.024 158.768 304.098C158.768 304.098 155.919 302.501 152.468 294.9L149.528 295.417C149.033 295.517 148.573 295.818 148.21 296.28C147.847 296.742 147.599 297.343 147.498 298.001C147.477 298.187 147.477 298.377 147.498 298.564C147.625 299.518 147.798 300.459 148.016 301.383C148.77 304.436 149.661 307.426 150.683 310.335L151.159 310.072L149.64 304.379C149.136 302.435 150.893 304.079 151.824 305.958C152.755 307.837 154.078 309.659 157.221 308.062C160.875 306.146 162.324 305.131 161.043 304.445Z" fill="#263238"/>
<path d="M151.733 292.88C151.733 292.88 156.451 302.5 158.768 304.097C158.768 304.097 156.171 306.915 152.706 302.387C148.233 296.572 147.484 298.564 147.484 298.564C147.444 297.424 147.484 296.283 147.603 295.153C147.96 292.946 151.733 292.88 151.733 292.88Z" fill="#E4897B"/>
<path d="M123.2 336.414C122.53 335.895 121.795 335.545 121.03 335.38C121.03 335.38 118.545 332.928 116.55 324.454L113.603 324.022C113.103 323.959 112.601 324.105 112.166 324.442C111.731 324.779 111.384 325.289 111.174 325.901C111.112 326.07 111.069 326.25 111.048 326.437C110.999 327.397 110.999 328.36 111.048 329.321C111.238 332.527 111.575 335.715 112.056 338.866L112.567 338.762L112.112 332.731C111.965 330.683 113.386 332.844 113.96 334.967C114.534 337.09 115.493 339.279 118.825 338.725C122.717 338.02 124.299 337.494 123.2 336.414Z" fill="#263238"/>
<path d="M116.202 322.229C116.202 322.229 119.086 333.08 121.053 335.381C121.053 335.381 118.036 337.26 115.453 331.793C112.128 324.719 111.057 326.419 111.057 326.419C111.213 325.302 111.448 324.208 111.757 323.15C112.499 321.083 116.202 322.229 116.202 322.229Z" fill="#E4897B"/>
<path d="M63.3229 130.582L57.4009 132.179C57.1695 132.441 56.8962 132.627 56.6023 132.723C56.3085 132.819 56.002 132.823 55.7069 132.733C53.9429 131.794 51.4019 129.041 51.0799 128.036C50.6039 126.618 51.0799 122.456 52.3259 121.704C53.5719 120.953 57.8629 127.905 57.8629 127.905L64.2259 125.979L63.3229 130.582Z" fill="#E4897B"/>
<path d="M81.9995 156.998C81.9995 156.998 81.4605 131.248 79.2415 130.149C77.0225 129.05 60.3415 132.122 60.3415 132.122L59.9355 126.241C59.9355 126.241 79.3465 122.229 83.1055 124.606C86.8645 126.983 88.1035 165.359 87.4175 172.753L81.9995 156.998Z" fill="#A210C6"/>
<path opacity="0.6" d="M81.9995 156.998C81.9995 156.998 81.4605 131.248 79.2415 130.149C77.0225 129.05 60.3415 132.122 60.3415 132.122L59.9355 126.241C59.9355 126.241 79.3465 122.229 83.1055 124.606C86.8645 126.983 88.1035 165.359 87.4175 172.753L81.9995 156.998Z" fill="white"/>
<path d="M60.6288 132.685L59.4668 126.222L61.1328 125.414L62.1898 132.883L60.6288 132.685Z" fill="#A210C6"/>
<path opacity="0.7" d="M60.6288 132.685L59.4668 126.222L61.1328 125.414L62.1898 132.883L60.6288 132.685Z" fill="white"/>
<path d="M81.9016 153.786C81.9016 153.786 80.4106 161.621 73.2286 164.12C66.0466 166.619 58.1016 160.09 58.1016 160.09L59.6836 178.785L68.4756 208.236L90.9456 200.373C90.9456 200.373 89.6016 166.112 81.9016 153.786Z" fill="#A210C6"/>
<path opacity="0.7" d="M81.9016 153.786C81.9016 153.786 80.4106 161.621 73.2286 164.12C66.0466 166.619 58.1016 160.09 58.1016 160.09L59.6836 178.785L68.4756 208.236L90.9456 200.373C90.9456 200.373 89.6016 166.112 81.9016 153.786Z" fill="white"/>
<path opacity="0.6" d="M85.8053 184.853L88.4355 183.739C88.7268 183.616 88.8884 183.199 88.7965 182.808L87.2296 176.142C87.1377 175.751 86.8271 175.534 86.5358 175.658L83.9056 176.771C83.6143 176.895 83.4527 177.312 83.5446 177.702L85.1115 184.368C85.2034 184.759 85.514 184.976 85.8053 184.853Z" fill="#A210C6"/>
<path opacity="0.2" d="M85.271 182.821L88.2617 181.555L86.9707 176.063L83.98 177.329L85.271 182.821Z" fill="black"/>
<path d="M85.1707 174.077L84.5098 174.356L85.2701 177.591L85.931 177.311L85.1707 174.077Z" fill="#263238"/>
<path d="M66.6262 124.522C61.0892 124.522 57.4352 132.394 58.7302 144.879C60.0252 157.365 65.2122 160.963 65.2122 160.963L64.8832 157.947C70.6415 159.701 76.5783 160.145 82.4462 159.262C82.4462 159.262 79.7722 149.079 80.6402 138.679C80.6402 138.679 82.3972 124.503 66.6262 124.522Z" fill="#263238"/>
<path opacity="0.2" d="M77.6244 161.582L79.8854 172.856L75.9094 168.788C75.9094 168.788 79.7804 180.662 80.8094 187.577C80.8094 187.577 77.4634 175.806 74.5794 169.352L72.8924 175.815L66.1094 166.543C66.1094 166.543 72.1014 160.38 77.6244 161.582Z" fill="black"/>
<path d="M74.3203 165.219L67.4183 165.501C70.4773 160.25 64.9473 151.1 64.9473 151.1L71.7653 153.082C73.3893 162.138 76.1963 162.411 76.1963 162.411L74.3203 165.219Z" fill="#E4897B"/>
<path opacity="0.2" d="M73.6693 159.581C71.0356 159.286 68.5861 157.649 66.8233 155.006C66.2786 153.649 65.6512 152.354 64.9473 151.136L71.7653 153.127C72.1263 155.407 72.7699 157.588 73.6693 159.581Z" fill="black"/>
<path d="M71.7588 128.346C77.7018 129.013 79.3538 133.494 79.2768 141.77C79.1858 152.104 77.0298 159.216 69.7358 156.191C59.8238 152.085 61.8818 127.237 71.7588 128.346Z" fill="#E4897B"/>
<path d="M75.4613 140.915C75.8637 142.161 76.376 143.337 76.9873 144.419C76.7916 144.727 76.5368 144.958 76.2505 145.085C75.9642 145.213 75.6574 145.232 75.3633 145.143L75.4613 140.915Z" fill="#DE5753"/>
<path d="M71.4355 139.581L72.7235 139.018C72.7235 139.018 72.0375 140.389 71.4355 139.581Z" fill="#263238"/>
<path d="M71.8844 139.384C71.6449 139.226 71.3708 139.19 71.1132 139.283C70.8556 139.377 70.6321 139.593 70.4844 139.891C70.7041 139.756 70.9428 139.687 71.1844 139.687C71.4259 139.687 71.6646 139.756 71.8844 139.891V139.384Z" fill="#263238"/>
<path d="M69.4905 135.58C69.4243 135.578 69.3614 135.54 69.3155 135.476C69.2911 135.446 69.2717 135.409 69.2584 135.367C69.2451 135.326 69.2383 135.282 69.2383 135.237C69.2383 135.192 69.2451 135.148 69.2584 135.106C69.2717 135.065 69.2911 135.028 69.3155 134.997C69.7058 134.539 70.1702 134.209 70.6719 134.033C71.1736 133.857 71.699 133.84 72.2065 133.983C72.2724 134.001 72.33 134.054 72.3668 134.13C72.4036 134.206 72.4164 134.298 72.4025 134.387C72.3885 134.475 72.349 134.553 72.2926 134.602C72.2361 134.651 72.1674 134.668 72.1015 134.65C71.6779 134.534 71.2404 134.547 70.8211 134.688C70.4019 134.83 70.0117 135.096 69.6795 135.467C69.656 135.503 69.6269 135.532 69.5943 135.551C69.5616 135.571 69.5262 135.581 69.4905 135.58Z" fill="#263238"/>
<path d="M78.8146 135.721C78.7591 135.724 78.7046 135.701 78.6606 135.655C78.3805 135.311 78.0466 135.054 77.6833 134.905C77.32 134.755 76.9365 134.716 76.5606 134.791C76.5284 134.803 76.4948 134.806 76.4618 134.8C76.4287 134.794 76.3968 134.78 76.3679 134.758C76.339 134.735 76.3136 134.706 76.2932 134.67C76.2728 134.635 76.2578 134.595 76.2491 134.551C76.2404 134.508 76.2381 134.463 76.2423 134.419C76.2465 134.374 76.2573 134.332 76.2738 134.293C76.2904 134.254 76.3125 134.22 76.3389 134.192C76.3653 134.165 76.3954 134.145 76.4276 134.133C76.8813 134.026 77.3474 134.059 77.7902 134.229C78.233 134.4 78.6409 134.705 78.9826 135.12C79.0344 135.177 79.0678 135.259 79.0756 135.348C79.0834 135.437 79.0652 135.527 79.0246 135.599C78.9993 135.64 78.967 135.673 78.9305 135.694C78.894 135.715 78.8543 135.724 78.8146 135.721Z" fill="#263238"/>
<path d="M64.4018 141.066C64.4018 141.066 67.5868 134.828 67.4818 129.717C67.4818 129.717 79.6688 124.569 79.2558 140.69C79.2558 140.69 81.2858 126.598 71.0868 125.104C60.8878 123.611 59.7048 143.734 64.6118 150.31C64.6118 150.31 62.4488 144.974 64.4018 141.066Z" fill="#263238"/>
<path d="M65.2904 142.859C65.2904 141.929 65.0155 141.037 64.5261 140.378C64.0366 139.719 63.3725 139.348 62.6794 139.346C60.8174 139.411 59.6274 144.391 64.1354 146.128C64.7794 146.373 65.2064 145.555 65.2904 142.859Z" fill="#E4897B"/>
<path d="M75.4123 147.492C74.9764 148.277 74.5856 149.106 74.2433 149.972C74.1243 149.915 73.9983 149.868 73.8793 149.803C72.2343 149.023 71.6603 147.924 71.5273 146.984C71.4646 146.507 71.4911 146.016 71.6043 145.556C71.6626 145.292 71.7474 145.039 71.8563 144.805C72.7116 145.896 73.7341 146.723 74.8523 147.228C75.1883 147.398 75.4123 147.492 75.4123 147.492Z" fill="#263238"/>
<path d="M74.8515 147.209L74.4945 147.932C72.9405 147.19 71.9255 146.392 71.6035 145.537C71.6618 145.272 71.7466 145.019 71.8555 144.785C72.7108 145.876 73.7333 146.703 74.8515 147.209Z" fill="white"/>
<path d="M73.8793 149.803C72.2343 149.023 71.6603 147.924 71.5273 146.984C72.1497 147.292 72.7258 147.747 73.2283 148.328C73.5542 148.717 73.7817 149.232 73.8793 149.803Z" fill="#DE5753"/>
<path d="M71.5966 128.937C71.5966 128.937 68.3837 141.798 62.2377 140.915C56.0917 140.032 66.6266 124.494 66.6266 124.494C66.6266 124.494 76.9937 120.52 81.5087 128.251C86.0237 135.983 79.2757 140.671 79.2757 140.671C79.2757 140.671 80.2836 130.581 71.5966 128.937Z" fill="#263238"/>
<path d="M66.6963 139.882C66.6608 139.88 66.6263 139.864 66.5968 139.838C66.5672 139.811 66.5435 139.775 66.5283 139.731C66.5123 139.672 66.5143 139.606 66.5339 139.548C66.5535 139.49 66.5892 139.445 66.6333 139.421C71.5333 136.913 71.4213 128.092 71.4213 127.998C71.4193 127.967 71.4222 127.936 71.4298 127.907C71.4374 127.878 71.4496 127.851 71.4655 127.829C71.4814 127.807 71.5007 127.789 71.5221 127.778C71.5434 127.767 71.5663 127.761 71.5893 127.763C71.6348 127.765 71.6782 127.789 71.7116 127.83C71.7451 127.871 71.7662 127.928 71.7713 127.988C71.7713 128.082 71.8833 137.233 66.7593 139.863L66.6963 139.882Z" fill="#263238"/>
<path d="M77.4707 140.361L78.7587 139.807C78.7587 139.807 78.0657 141.169 77.4707 140.361Z" fill="#263238"/>
<path d="M77.9176 140.163C77.6776 140.004 77.4024 139.969 77.1443 140.064C76.8862 140.159 76.6632 140.379 76.5176 140.68C76.734 140.535 76.9713 140.455 77.213 140.446C77.4547 140.436 77.695 140.497 77.9176 140.624V140.163Z" fill="#263238"/>
<path d="M68.3912 161.704L73.5922 165.255L73.5082 172.329L66.0742 166.514L68.3912 161.704Z" fill="#A210C6"/>
<path d="M74.3828 160.371L74.6908 164.664L78.0858 169.484L77.6238 161.555L74.3828 160.371Z" fill="#A210C6"/>
<path d="M50.351 111.792L48.181 104.277C48.2206 103.875 48.19 103.466 48.0916 103.083C47.9932 102.7 47.8297 102.353 47.614 102.069C46.102 100.557 42.98 99.185 42.196 99.3447C41.055 99.5702 38.696 102.342 38.899 104.155C39.102 105.968 45.766 107.086 45.766 107.086L47.978 115.325L50.351 111.792Z" fill="#E4897B"/>
<path d="M59.6962 178.784C59.6962 178.784 63.8962 174.303 62.2232 164.401L57.7082 137.007L49.9522 108.711L46.1582 111.285C46.1582 111.285 52.5282 138.933 53.1162 140.802C53.4172 141.742 54.6142 156.087 56.2452 165.698C57.7432 174.547 59.6962 178.784 59.6962 178.784Z" fill="#A210C6"/>
<path opacity="0.6" d="M59.6962 178.784C59.6962 178.784 63.8962 174.303 62.2232 164.401L57.7082 137.007L49.9522 108.711L46.1582 111.285C46.1582 111.285 52.5282 138.933 53.1162 140.802C53.4172 141.742 54.6142 156.087 56.2452 165.698C57.7432 174.547 59.6962 178.784 59.6962 178.784Z" fill="white"/>
<path d="M45.4941 110.478L49.9251 107.5L50.8911 109.482L45.7111 112.564L45.4941 110.478Z" fill="#A210C6"/>
<path opacity="0.7" d="M45.4941 110.478L49.9251 107.5L50.8911 109.482L45.7111 112.564L45.4941 110.478Z" fill="white"/>
<path opacity="0.6" d="M68.3912 161.704L73.5922 165.255L73.5082 172.329L66.0742 166.514L68.3912 161.704Z" fill="white"/>
<path opacity="0.6" d="M74.3828 160.371L74.6908 164.664L78.0858 169.484L77.6238 161.555L74.3828 160.371Z" fill="white"/>
<path d="M222.081 146.939H201.109V168.81H222.081V146.939Z" fill="white"/>
<path opacity="0.1" d="M222.081 146.939H216.705V168.81H222.081V146.939Z" fill="black"/>
<path d="M199.906 188.124H223.615V148.433H215.978L199.906 158.757V188.124Z" fill="#A210C6"/>
<path opacity="0.2" d="M223.616 148.433H215.979V188.124H223.616V148.433Z" fill="black"/>
<path opacity="0.7" d="M213.452 166.583H202.35V173.723H213.452V166.583Z" fill="white"/>
<path opacity="0.7" d="M213.452 176.108H202.35V177.132H213.452V176.108Z" fill="white"/>
<path opacity="0.7" d="M222.872 179.105H216.705V185.165H222.872V179.105Z" fill="white"/>
<path d="M213.171 145.746H192.199V168.809H213.171V145.746Z" fill="white"/>
<path opacity="0.1" d="M213.171 145.746H207.795V168.809H213.171V145.746Z" fill="black"/>
<path d="M190.994 188.124H214.703V148.433H207.066L190.994 158.757V188.124Z" fill="#A210C6"/>
<path opacity="0.2" d="M214.703 148.433H207.066V188.124H214.703V148.433Z" fill="black"/>
<path opacity="0.7" d="M204.54 166.583H193.438V173.723H204.54V166.583Z" fill="white"/>
<path opacity="0.7" d="M204.54 176.108H193.438V177.132H204.54V176.108Z" fill="white"/>
<path opacity="0.7" d="M213.962 179.105H207.795V185.165H213.962V179.105Z" fill="white"/>
<path d="M176.268 338.822H180.559L188.259 194.852H182.568L176.268 338.822Z" fill="#263238"/>
<path opacity="0.1" d="M176.268 338.82H180.559L187.881 201.999L188.259 195.085H182.568L182.267 201.999L176.268 338.82Z" fill="white"/>
<path opacity="0.2" d="M182.266 201.661H187.88L188.258 195.085H182.567L182.266 201.661Z" fill="black"/>
<path d="M144.794 338.822H149.085L149.785 194.852H144.094L144.794 338.822Z" fill="#263238"/>
<path opacity="0.1" d="M144.088 195.085L144.207 218.308L144.788 338.82H149.079L149.667 218.308L149.779 195.085H144.088Z" fill="white"/>
<path opacity="0.2" d="M144.088 195.085L144.207 218.571H149.667L149.779 195.085H144.088Z" fill="black"/>
<path d="M99.2676 338.822H103.559L111.259 194.852H105.568L99.2676 338.822Z" fill="#263238"/>
<path opacity="0.1" d="M99.2676 338.82H103.559L110.888 201.999L111.259 195.085H105.568L105.267 201.999L99.2676 338.82Z" fill="white"/>
<path opacity="0.2" d="M105.266 201.661H110.887L111.258 195.085H105.567L105.266 201.661Z" fill="black"/>
<path d="M225.322 338.822H229.613L223.306 194.852H217.615L225.322 338.822Z" fill="#263238"/>
<path opacity="0.1" d="M217.615 195.085L218 201.999L225.322 338.82H229.606L223.614 201.999L223.306 195.085H217.615Z" fill="white"/>
<path opacity="0.2" d="M223.306 195.085H217.615L218 201.661H223.614L223.306 195.085Z" fill="black"/>
<path d="M226.31 198.458L102.578 198.458C102.38 198.458 102.183 198.406 102 198.304C101.816 198.202 101.65 198.052 101.509 197.864C101.369 197.675 101.257 197.452 101.181 197.205C101.105 196.959 101.066 196.695 101.066 196.429V191.252L227.822 191.252V196.429C227.822 196.695 227.783 196.959 227.707 197.205C227.631 197.452 227.52 197.675 227.379 197.864C227.239 198.052 227.072 198.202 226.889 198.304C226.705 198.406 226.509 198.458 226.31 198.458Z" fill="#A210C6"/>
<path opacity="0.4" d="M226.31 198.458L102.578 198.458C102.38 198.458 102.183 198.406 102 198.304C101.816 198.202 101.65 198.052 101.509 197.864C101.369 197.675 101.257 197.452 101.181 197.205C101.105 196.959 101.066 196.695 101.066 196.429V191.252L227.822 191.252V196.429C227.822 196.695 227.783 196.959 227.707 197.205C227.631 197.452 227.52 197.675 227.379 197.864C227.239 198.052 227.072 198.202 226.889 198.304C226.705 198.406 226.509 198.458 226.31 198.458Z" fill="white"/>
<path opacity="0.2" d="M101.066 194.852L227.822 194.852V191.244L101.066 191.244V194.852Z" fill="black"/>
<path d="M98.4057 192.183H230.475C230.674 192.185 230.871 192.133 231.054 192.031C231.238 191.93 231.405 191.781 231.546 191.592C231.687 191.403 231.798 191.179 231.874 190.932C231.949 190.685 231.988 190.421 231.987 190.154C231.987 189.616 231.827 189.1 231.544 188.719C231.26 188.339 230.876 188.125 230.475 188.125H98.4057C98.0041 188.125 97.6188 188.338 97.3341 188.719C97.0494 189.099 96.8886 189.615 96.8867 190.154C96.8867 190.421 96.9261 190.686 97.0025 190.933C97.0789 191.18 97.1909 191.404 97.332 191.592C97.4732 191.781 97.6407 191.93 97.825 192.032C98.0092 192.133 98.2066 192.185 98.4057 192.183Z" fill="#A210C6"/>
<path opacity="0.4" d="M98.4057 192.183H230.475C230.674 192.185 230.871 192.133 231.054 192.031C231.238 191.93 231.405 191.781 231.546 191.592C231.687 191.403 231.798 191.179 231.874 190.932C231.949 190.685 231.988 190.421 231.987 190.154C231.987 189.616 231.827 189.1 231.544 188.719C231.26 188.339 230.876 188.125 230.475 188.125H98.4057C98.0041 188.125 97.6188 188.338 97.3341 188.719C97.0494 189.099 96.8886 189.615 96.8867 190.154C96.8867 190.421 96.9261 190.686 97.0025 190.933C97.0789 191.18 97.1909 191.404 97.332 191.592C97.4732 191.781 97.6407 191.93 97.825 192.032C98.0092 192.133 98.2066 192.185 98.4057 192.183Z" fill="white"/>
<path d="M202.097 188.107V184.931H203.686L202.097 183.691H203.287L201.698 182.301H200.193V180.704H201.943L200.193 179.774V176.307H201.943V174.043H203.686L201.943 173.254V171.638H203.189L202.167 170.276L201.285 169.083H174.237V170.708H172.452L174.44 171.911V173.254H170.793V175.753H169.176L170.793 176.843V179.633H171.941V180.967H174.237V184.931H172.949L174.006 186.35V188.126L202.097 188.107Z" fill="#A210C6"/>
<path opacity="0.7" d="M202.097 188.107V184.931H203.686L202.097 183.691H203.287L201.698 182.301H200.193V180.704H201.943L200.193 179.774V176.307H201.943V174.043H203.686L201.943 173.254V171.638H203.189L202.167 170.276L201.285 169.083H174.237V170.708H172.452L174.44 171.911V173.254H170.793V175.753H169.176L170.793 176.843V179.633H171.941V180.967H174.237V184.931H172.949L174.006 186.35V188.126L202.097 188.107Z" fill="white"/>
<path opacity="0.1" d="M202.098 188.107V184.931H203.687L202.098 183.691H203.288L201.699 182.301H200.194V180.704H201.944L200.194 179.774V176.307H201.944V174.043H203.687L201.944 173.254V171.638H203.19L202.168 170.276L201.286 169.083H187.041V170.708H185.256L187.237 171.911V173.254H183.59V175.753H181.973L183.59 176.843V179.633H184.738V180.967H187.041V184.931H185.753L186.803 186.35V188.126L202.098 188.107Z" fill="black"/>
<path opacity="0.1" d="M174.439 173.253H187.235L174.439 172.633V173.253Z" fill="black"/>
<path opacity="0.1" d="M174.236 180.966H187.039L187.095 182.168L174.236 180.966Z" fill="black"/>
<path opacity="0.1" d="M171.941 179.632H184.737L171.941 180.233V179.632Z" fill="black"/>
<path opacity="0.1" d="M174.236 184.93H187.039L174.236 184.301V184.93Z" fill="black"/>
<path opacity="0.1" d="M174.006 186.349H186.802V187.006L174.006 186.349Z" fill="black"/>
<path opacity="0.1" d="M170.793 175.751H183.589L170.793 175.206V175.751Z" fill="black"/>
<path opacity="0.1" d="M174.236 170.708H187.039L174.236 170.106V170.708Z" fill="black"/>
<path opacity="0.1" d="M201.942 171.638H188.957L201.942 172.173V171.638Z" fill="black"/>
<path opacity="0.1" d="M187.236 173.253H201.943L188.608 173.835L187.236 173.253Z" fill="black"/>
<path opacity="0.1" d="M183.588 175.752L201.942 176.306V175.752H183.588Z" fill="black"/>
<path opacity="0.1" d="M183.588 176.842H192.667L183.588 177.434V176.842Z" fill="black"/>
<path opacity="0.1" d="M200.192 179.774L187.039 179.633L200.192 179.238V179.774Z" fill="black"/>
<path opacity="0.1" d="M200.192 180.702H186.801L200.192 181.303V180.702Z" fill="black"/>
<path opacity="0.1" d="M202.097 183.689H187.236V184.3L202.097 183.689Z" fill="black"/>
<path opacity="0.1" d="M202.096 184.93H191.33L202.096 185.334V184.93Z" fill="black"/>
<path d="M167.656 184.01V187.025C167.656 187.796 166.956 188.115 166.403 188.115H121.519C120.945 188.115 120.252 187.796 120.252 187.025V184.01H167.656Z" fill="#263238"/>
<path opacity="0.4" d="M167.656 184.01V187.025C167.656 187.796 166.956 188.115 166.403 188.115H121.519C120.945 188.115 120.252 187.796 120.252 187.025V184.01H167.656Z" fill="white"/>
<path opacity="0.2" d="M167.657 184.01V187.025C167.657 187.796 166.957 188.115 166.404 188.115H136.801C136.227 188.115 135.541 187.796 135.541 187.025V184.01H167.657Z" fill="black"/>
<path d="M175.167 152.707L169.819 185.24C169.727 185.768 169.506 186.24 169.192 186.58C168.877 186.921 168.487 187.111 168.083 187.119H138.9C138.719 187.114 138.54 187.052 138.38 186.939C138.219 186.826 138.08 186.664 137.973 186.467C137.867 186.269 137.796 186.041 137.766 185.801C137.736 185.56 137.748 185.314 137.801 185.081L143.135 152.801C143.245 152.309 143.477 151.881 143.793 151.591C144.109 151.3 144.489 151.164 144.871 151.204H174.061C174.845 151.167 175.335 151.646 175.167 152.707Z" fill="#263238"/>
<path opacity="0.4" d="M175.169 152.708L169.821 185.241C169.729 185.769 169.508 186.241 169.193 186.581C168.879 186.921 168.488 187.111 168.084 187.12H139.888C139.707 187.115 139.529 187.053 139.368 186.94C139.207 186.826 139.068 186.665 138.961 186.467C138.855 186.27 138.784 186.042 138.754 185.801C138.724 185.561 138.736 185.314 138.79 185.081L144.13 152.802C144.239 152.308 144.471 151.88 144.787 151.589C145.103 151.298 145.484 151.162 145.867 151.205H174.063C174.847 151.167 175.337 151.646 175.169 152.708Z" fill="white"/>
<path opacity="0.2" d="M160.775 169.241C160.775 172.06 158.549 174.286 156.918 174.286C155.287 174.286 154.321 172.022 154.818 169.241C155.315 166.461 156.918 164.291 158.5 164.206C158.038 167.024 159.032 169.241 160.656 169.241H160.775Z" fill="black"/>
</svg>
