<svg width="30" height="37" viewBox="0 0 30 37" fill="none" xmlns="http://www.w3.org/2000/svg">
<path d="M15.0442 33.1047C11.0578 33.1047 7.07151 32.4717 3.29051 31.2057C1.85339 30.7095 0.758436 29.7001 0.279395 28.3828C-0.216755 27.0654 -0.0456687 25.6112 0.741327 24.3109L2.70882 21.0432C3.11942 20.3588 3.49581 18.9901 3.49581 18.186V13.2417C3.49581 6.87727 8.67972 1.69336 15.0442 1.69336C21.4086 1.69336 26.5925 6.87727 26.5925 13.2417V18.186C26.5925 18.973 26.9689 20.3588 27.3795 21.0603L29.3299 24.3109C30.0655 25.5427 30.2024 27.0312 29.7063 28.3828C29.2101 29.7343 28.1323 30.7609 26.7807 31.2057C23.0168 32.4717 19.0305 33.1047 15.0442 33.1047ZM15.0442 4.25965C10.0997 4.25965 6.0621 8.28017 6.0621 13.2417V18.186C6.0621 19.435 5.54885 21.2827 4.91583 22.3605L2.94834 25.6283C2.57195 26.2613 2.4693 26.9285 2.69171 27.4931C2.89701 28.0748 3.41027 28.5196 4.11172 28.7591C11.2631 31.1544 18.8423 31.1544 25.9937 28.7591C26.6096 28.5538 27.0886 28.0919 27.311 27.476C27.5335 26.8601 27.4821 26.1929 27.14 25.6283L25.1725 22.3605C24.5223 21.2485 24.0262 19.4178 24.0262 18.1689V13.2417C24.0262 8.28017 20.0057 4.25965 15.0442 4.25965Z" fill="#292D32"/>
<path d="M18.226 4.72198C18.1063 4.72198 17.9865 4.70487 17.8667 4.67065C17.3706 4.53378 16.8915 4.43113 16.4296 4.3627C14.9754 4.1745 13.5725 4.27715 12.2551 4.67065C11.7761 4.82463 11.2629 4.67065 10.9378 4.31137C10.6127 3.95209 10.5101 3.43883 10.6983 2.9769C11.3997 1.18049 13.1105 0 15.0609 0C17.0113 0 18.7222 1.16339 19.4236 2.9769C19.5947 3.43883 19.5092 3.95209 19.1841 4.31137C18.9275 4.58511 18.5682 4.72198 18.226 4.72198Z" fill="#292D32"/>
<path d="M15.0436 37.0056C13.3499 37.0056 11.7074 36.3212 10.5099 35.1236C9.31227 33.926 8.62793 32.2836 8.62793 30.5898H11.1942C11.1942 31.5993 11.6048 32.5916 12.3233 33.3101C13.0419 34.0287 14.0342 34.4393 15.0436 34.4393C17.1651 34.4393 18.893 32.7113 18.893 30.5898H21.4593C21.4593 34.1313 18.5851 37.0056 15.0436 37.0056Z" fill="#292D32"/>
</svg>
