<svg width="109" height="102" viewBox="0 0 109 102" fill="none" xmlns="http://www.w3.org/2000/svg">
<path d="M39.4072 17.3462C45.7381 27.4908 56.3042 28.868 68.9161 27.6532" stroke="#C160D9" stroke-width="5.32315" stroke-linecap="round" stroke-linejoin="round"/>
<path d="M37.9627 18.5215C34.7043 21.9805 32.6549 25.4312 31.2705 30.1894" stroke="#C160D9" stroke-width="5.32315" stroke-linecap="round" stroke-linejoin="round"/>
<path d="M31.4223 31.5547C27.1292 33.9764 33.0083 37.4726 33.0083 37.6814C33.0083 59.8707 71.2322 68.8058 71.2322 40.0889" stroke="#C160D9" stroke-width="5.32315" stroke-linecap="round" stroke-linejoin="round"/>
<path d="M27.409 55.7146C17.0723 35.8372 20.6296 11.0073 42.8567 3.104" stroke="#C160D9" stroke-width="5.32315" stroke-linecap="round" stroke-linejoin="round"/>
<path d="M50.5205 3C90.1843 3.00009 79.5507 33.5173 81.9454 52.378" stroke="#C160D9" stroke-width="5.32315" stroke-linecap="round" stroke-linejoin="round"/>
<path d="M50.001 35.3117C50.001 34.4219 50.001 33.5307 50.001 32.6406" stroke="#C160D9" stroke-width="5.32315" stroke-linecap="round" stroke-linejoin="round"/>
<path d="M58.7012 35.281C58.7012 33.8644 59.0602 33.6254 58.7012 32.5488" stroke="#C160D9" stroke-width="5.32315" stroke-linecap="round" stroke-linejoin="round"/>
<path d="M35.9878 56.5895C31.4422 67.3186 47.7527 73.7901 49.6936 83.7667C49.7399 83.9998 50.0536 96.7515 50.8694 96.7515C53.7765 96.7515 50.8497 83.2647 52.0438 81.6538C60.7318 69.9283 70.4486 70.9423 70.4486 55.3809" stroke="#C160D9" stroke-width="5.32315" stroke-linecap="round" stroke-linejoin="round"/>
<path d="M3 99.0872C8.05244 82.0902 8.05244 65.966 35.1914 56.3818" stroke="#C160D9" stroke-width="5.32315" stroke-linecap="round" stroke-linejoin="round"/>
<path d="M71.2158 56.3818C89.9976 57.1479 106.09 81.0067 106.09 96.7515" stroke="#C160D9" stroke-width="5.32315" stroke-linecap="round" stroke-linejoin="round"/>
<path d="M70.3555 55.5361C71.8892 58.8073 77.9935 69.1631 78.6729 72.7083" stroke="#C160D9" stroke-width="5.32315" stroke-linecap="round" stroke-linejoin="round"/>
<path d="M76.1861 72.8329C90.7795 64.6153 90.5356 90.2319 75.7822 80.9576C71.9901 78.5745 76.4432 74.8161 78.2065 72.4943" stroke="#C160D9" stroke-width="5.32315" stroke-linecap="round" stroke-linejoin="round"/>
<path d="M36.1275 56.8965C29.6256 60.9853 22.8572 69.5222 22.2041 76.1427" stroke="#C160D9" stroke-width="5.32315" stroke-linecap="round" stroke-linejoin="round"/>
<path d="M10.9952 99.0873C1.69679 94.9229 14.0035 71.8032 24.3506 76.4149C32.5479 80.0675 30.6958 98.2948 21.8078 99.0873" stroke="#C160D9" stroke-width="5.32315" stroke-linecap="round" stroke-linejoin="round"/>
<path d="M83.0502 89.6471C79.7957 89.3778 76.6391 90.1494 73.4199 90.5523" stroke="#C160D9" stroke-width="5.32315" stroke-linecap="round" stroke-linejoin="round"/>
</svg>
