<svg width="58" height="58" viewBox="0 0 58 58" fill="none" xmlns="http://www.w3.org/2000/svg">
<g filter="url(#filter0_d_855_1808)">
<rect x="4" width="50" height="50" rx="10" fill="white"/>
</g>
<path d="M29 33.6667C30.0609 33.6667 31.0783 33.3155 31.8284 32.6904C32.5786 32.0652 33 31.2174 33 30.3333C33 29.4493 32.5786 28.6014 31.8284 27.9763C31.0783 27.3512 30.0609 27 29 27C27.9391 27 26.9217 27.3512 26.1716 27.9763C25.4214 28.6014 25 29.4493 25 30.3333C25 31.2174 25.4214 32.0652 26.1716 32.6904C26.9217 33.3155 27.9391 33.6667 29 33.6667ZM41 18.6667C42.0609 18.6667 43.0783 19.0179 43.8284 19.643C44.5786 20.2681 45 21.1159 45 22V38.6667C45 39.5507 44.5786 40.3986 43.8284 41.0237C43.0783 41.6488 42.0609 42 41 42H17C15.9391 42 14.9217 41.6488 14.1716 41.0237C13.4214 40.3986 13 39.5507 13 38.6667V22C13 21.1159 13.4214 20.2681 14.1716 19.643C14.9217 19.0179 15.9391 18.6667 17 18.6667H19V15.3333C19 13.1232 20.0536 11.0036 21.9289 9.44078C23.8043 7.87797 26.3478 7 29 7C30.3132 7 31.6136 7.21555 32.8268 7.63434C34.0401 8.05313 35.1425 8.66696 36.0711 9.44078C36.9997 10.2146 37.7362 11.1333 38.2388 12.1443C38.7413 13.1554 39 14.239 39 15.3333V18.6667H41ZM29 10.3333C27.4087 10.3333 25.8826 10.8601 24.7574 11.7978C23.6321 12.7355 23 14.0073 23 15.3333V18.6667H35V15.3333C35 14.0073 34.3679 12.7355 33.2426 11.7978C32.1174 10.8601 30.5913 10.3333 29 10.3333Z" fill="#212427"/>
<defs>
<filter id="filter0_d_855_1808" x="0" y="0" width="58" height="58" filterUnits="userSpaceOnUse" color-interpolation-filters="sRGB">
<feFlood flood-opacity="0" result="BackgroundImageFix"/>
<feColorMatrix in="SourceAlpha" type="matrix" values="0 0 0 0 0 0 0 0 0 0 0 0 0 0 0 0 0 0 127 0" result="hardAlpha"/>
<feOffset dy="4"/>
<feGaussianBlur stdDeviation="2"/>
<feComposite in2="hardAlpha" operator="out"/>
<feColorMatrix type="matrix" values="0 0 0 0 0 0 0 0 0 0 0 0 0 0 0 0 0 0 0.25 0"/>
<feBlend mode="normal" in2="BackgroundImageFix" result="effect1_dropShadow_855_1808"/>
<feBlend mode="normal" in="SourceGraphic" in2="effect1_dropShadow_855_1808" result="shape"/>
</filter>
</defs>
</svg>
