<svg width="45" height="46" viewBox="0 0 45 46" fill="none" xmlns="http://www.w3.org/2000/svg">
<path d="M32.626 42.167C24.9709 42.1569 17.6322 39.0439 12.2192 33.5106C6.80626 27.9774 3.7609 20.4756 3.75098 12.6504C3.75098 10.3121 4.65968 8.0695 6.27718 6.41606C7.89468 4.76261 10.0885 3.83372 12.376 3.83372C12.8604 3.82994 13.3439 3.87488 13.8197 3.96788C14.2797 4.03746 14.7319 4.15301 15.1697 4.31288C15.4777 4.42334 15.7521 4.61405 15.9659 4.86617C16.1796 5.11829 16.3253 5.42307 16.3885 5.75038L18.9572 17.2504C19.0265 17.5625 19.0181 17.8874 18.933 18.1955C18.8478 18.5035 18.6886 18.7848 18.4697 19.0137C18.226 19.282 18.2072 19.3012 15.901 20.5279C17.7478 24.6695 20.9882 27.9955 25.0322 29.9004C26.251 27.5237 26.2697 27.5045 26.5322 27.2554C26.7562 27.0317 27.0314 26.8689 27.3327 26.7818C27.634 26.6948 27.9519 26.6863 28.2572 26.757L39.5072 29.3829C39.8172 29.4564 40.1037 29.6093 40.3399 29.8273C40.5761 30.0452 40.7541 30.321 40.8572 30.6287C41.0155 31.0837 41.1347 31.5518 41.2135 32.0279C41.2889 32.5096 41.3266 32.9967 41.326 33.4845C41.2914 35.8129 40.3572 38.0327 38.7272 39.6594C37.0972 41.2861 34.9039 42.1876 32.626 42.167Z" fill="white"/>
</svg>
