<svg width="58" height="58" viewBox="0 0 58 58" fill="none" xmlns="http://www.w3.org/2000/svg">
<g filter="url(#filter0_d_928_7827)">
<rect x="4" width="50" height="50" rx="10" fill="white"/>
</g>
<path d="M28.5003 9.91602C36.5547 9.91602 43.0837 16.445 43.0837 24.4993C43.0837 32.5537 36.5547 39.0827 28.5003 39.0827C26.1728 39.0859 23.8786 38.5297 21.811 37.461L16.2314 39.0171C15.9201 39.1039 15.5913 39.1065 15.2787 39.0245C14.9661 38.9424 14.6809 38.7788 14.4524 38.5502C14.2238 38.3217 14.0602 38.0365 13.9781 37.7239C13.8961 37.4113 13.8987 37.0825 13.9855 36.7712L15.543 31.196C14.4717 29.1265 13.914 26.8297 13.917 24.4993C13.917 16.445 20.446 9.91602 28.5003 9.91602ZM28.5003 12.1035C25.2128 12.1035 22.0598 13.4095 19.7352 15.7342C17.4105 18.0588 16.1045 21.2118 16.1045 24.4993C16.1045 26.6431 16.6485 28.7037 17.6693 30.5325L17.888 30.9262L16.2664 36.7362L22.0808 35.1146L22.4745 35.3333C24.1288 36.2531 25.9718 36.7818 27.8621 36.8789C29.7524 36.976 31.6398 36.6389 33.3797 35.8934C35.1195 35.148 36.6656 34.0141 37.8992 32.5785C39.1329 31.143 40.0214 29.444 40.4967 27.6118C40.9719 25.7797 41.0213 23.863 40.641 22.0088C40.2607 20.1546 39.4608 18.4121 38.3027 16.9149C37.1446 15.4178 35.659 14.2057 33.9599 13.3717C32.2607 12.5377 30.3931 12.1039 28.5003 12.1035ZM28.5003 29.6035C28.8871 29.6035 29.258 29.7572 29.5315 30.0307C29.805 30.3041 29.9587 30.6751 29.9587 31.0618C29.9587 31.4486 29.805 31.8196 29.5315 32.093C29.258 32.3665 28.8871 32.5202 28.5003 32.5202C28.1136 32.5202 27.7426 32.3665 27.4691 32.093C27.1957 31.8196 27.042 31.4486 27.042 31.0618C27.042 30.6751 27.1957 30.3041 27.4691 30.0307C27.7426 29.7572 28.1136 29.6035 28.5003 29.6035ZM28.5003 16.8431C29.564 16.8431 30.584 17.2656 31.3361 18.0177C32.0882 18.7698 32.5108 19.7899 32.5108 20.8535C32.5108 22.3264 32.0776 23.1489 30.978 24.2937L30.7316 24.5431C29.8245 25.4502 29.5941 25.8352 29.5941 26.6868C29.5941 26.9769 29.4789 27.2551 29.2737 27.4602C29.0686 27.6654 28.7904 27.7806 28.5003 27.7806C28.2103 27.7806 27.9321 27.6654 27.7269 27.4602C27.5218 27.2551 27.4066 26.9769 27.4066 26.6868C27.4066 25.2139 27.8397 24.3914 28.9393 23.2466L29.1858 22.9973C30.0928 22.0902 30.3233 21.7052 30.3233 20.8535C30.3217 20.3872 30.1416 19.9393 29.8199 19.6018C29.4983 19.2642 29.0595 19.0628 28.5938 19.0389C28.1282 19.015 27.6711 19.1704 27.3165 19.4732C26.9619 19.776 26.7369 20.2032 26.6876 20.6668L26.6774 20.8535C26.6774 21.1436 26.5622 21.4218 26.3571 21.6269C26.152 21.832 25.8738 21.9473 25.5837 21.9473C25.2936 21.9473 25.0154 21.832 24.8103 21.6269C24.6052 21.4218 24.4899 21.1436 24.4899 20.8535C24.4899 19.7899 24.9124 18.7698 25.6645 18.0177C26.4166 17.2656 27.4367 16.8431 28.5003 16.8431Z" fill="#212427"/>
<defs>
<filter id="filter0_d_928_7827" x="0" y="0" width="58" height="58" filterUnits="userSpaceOnUse" color-interpolation-filters="sRGB">
<feFlood flood-opacity="0" result="BackgroundImageFix"/>
<feColorMatrix in="SourceAlpha" type="matrix" values="0 0 0 0 0 0 0 0 0 0 0 0 0 0 0 0 0 0 127 0" result="hardAlpha"/>
<feOffset dy="4"/>
<feGaussianBlur stdDeviation="2"/>
<feComposite in2="hardAlpha" operator="out"/>
<feColorMatrix type="matrix" values="0 0 0 0 0 0 0 0 0 0 0 0 0 0 0 0 0 0 0.25 0"/>
<feBlend mode="normal" in2="BackgroundImageFix" result="effect1_dropShadow_928_7827"/>
<feBlend mode="normal" in="SourceGraphic" in2="effect1_dropShadow_928_7827" result="shape"/>
</filter>
</defs>
</svg>
