<svg width="58" height="58" viewBox="0 0 58 58" fill="none" xmlns="http://www.w3.org/2000/svg">
<g filter="url(#filter0_d_855_1889)">
<rect x="4" width="50" height="50" rx="10" fill="#A210C6"/>
</g>
<path fill-rule="evenodd" clip-rule="evenodd" d="M34.3327 20.1263C34.3327 21.6734 33.7181 23.1571 32.6241 24.2511C31.5302 25.3451 30.0464 25.9596 28.4993 25.9596C26.9523 25.9596 25.4685 25.3451 24.3746 24.2511C23.2806 23.1571 22.666 21.6734 22.666 20.1263C22.666 18.5792 23.2806 17.0955 24.3746 16.0015C25.4685 14.9076 26.9523 14.293 28.4993 14.293C30.0464 14.293 31.5302 14.9076 32.6241 16.0015C33.7181 17.0955 34.3327 18.5792 34.3327 20.1263ZM31.416 20.1263C31.416 20.8999 31.1087 21.6417 30.5617 22.1887C30.0148 22.7357 29.2729 23.043 28.4993 23.043C27.7258 23.043 26.9839 22.7357 26.437 22.1887C25.89 21.6417 25.5827 20.8999 25.5827 20.1263C25.5827 19.3528 25.89 18.6109 26.437 18.0639C26.9839 17.5169 27.7258 17.2096 28.4993 17.2096C29.2729 17.2096 30.0148 17.5169 30.5617 18.0639C31.1087 18.6109 31.416 19.3528 31.416 20.1263Z" fill="white"/>
<path fill-rule="evenodd" clip-rule="evenodd" d="M28.4997 8.45898C19.6403 8.45898 12.458 15.6413 12.458 24.5007C12.458 33.36 19.6403 40.5423 28.4997 40.5423C37.359 40.5423 44.5413 33.36 44.5413 24.5007C44.5413 15.6413 37.359 8.45898 28.4997 8.45898ZM15.3747 24.5007C15.3747 27.5486 16.4145 30.3544 18.1572 32.5827C19.3811 30.9755 20.9599 29.673 22.7705 28.7769C24.5811 27.8809 26.5743 27.4156 28.5945 27.4173C30.5885 27.4154 32.5566 27.8687 34.3489 28.7426C36.1413 29.6165 37.7105 30.888 38.937 32.4602C40.2005 30.803 41.0513 28.8687 41.4189 26.8173C41.7865 24.766 41.6603 22.6566 41.0508 20.6638C40.4413 18.6709 39.366 16.8518 37.9139 15.357C36.4618 13.8621 34.6746 12.7346 32.7002 12.0676C30.7258 11.4007 28.621 11.2134 26.5599 11.5214C24.4988 11.8294 22.5406 12.6238 20.8475 13.8389C19.1543 15.0539 17.7748 16.6546 16.8231 18.5086C15.8715 20.3627 15.3749 22.4166 15.3747 24.5007ZM28.4997 37.6256C25.4867 37.6302 22.5646 36.5937 20.228 34.6915C21.1685 33.3451 22.4204 32.2457 23.877 31.4871C25.3337 30.7284 26.9521 30.3328 28.5945 30.334C30.2164 30.3327 31.8152 30.7184 33.2581 31.459C34.701 32.1996 35.9465 33.2738 36.8909 34.5923C34.5361 36.5563 31.5659 37.63 28.4997 37.6256Z" fill="white"/>
<defs>
<filter id="filter0_d_855_1889" x="0" y="0" width="58" height="58" filterUnits="userSpaceOnUse" color-interpolation-filters="sRGB">
<feFlood flood-opacity="0" result="BackgroundImageFix"/>
<feColorMatrix in="SourceAlpha" type="matrix" values="0 0 0 0 0 0 0 0 0 0 0 0 0 0 0 0 0 0 127 0" result="hardAlpha"/>
<feOffset dy="4"/>
<feGaussianBlur stdDeviation="2"/>
<feComposite in2="hardAlpha" operator="out"/>
<feColorMatrix type="matrix" values="0 0 0 0 0 0 0 0 0 0 0 0 0 0 0 0 0 0 0.25 0"/>
<feBlend mode="normal" in2="BackgroundImageFix" result="effect1_dropShadow_855_1889"/>
<feBlend mode="normal" in="SourceGraphic" in2="effect1_dropShadow_855_1889" result="shape"/>
</filter>
</defs>
</svg>
