<svg width="765" height="866" viewBox="0 0 765 866" fill="none" xmlns="http://www.w3.org/2000/svg">
<path fill-rule="evenodd" clip-rule="evenodd" d="M-158 388.344L-127.919 399.439C-96.2556 416.083 -34.5111 449.369 27.2333 416.083C87.3945 388.344 149.139 288.484 210.883 305.127C272.628 321.771 334.372 449.369 396.117 449.369C457.861 449.369 519.606 321.771 579.767 221.911C641.511 127.599 703.256 61.0255 734.919 27.7389L765 0V871H734.919C703.256 871 641.511 871 579.767 871C519.606 871 457.861 871 396.117 871C334.372 871 272.628 871 210.883 871C149.139 871 87.3945 871 27.2333 871C-34.5111 871 -96.2556 871 -127.919 871H-158V388.344Z" fill="url(#paint0_linear_286_4110)"/>
<defs>
<linearGradient id="paint0_linear_286_4110" x1="303.5" y1="0" x2="303.5" y2="871" gradientUnits="userSpaceOnUse">
<stop offset="0.473958" stop-color="#A210C6" stop-opacity="0"/>
<stop offset="0.880208" stop-color="#A210C6"/>
</linearGradient>
</defs>
</svg>
