<svg width="714" height="871" viewBox="0 0 714 871" fill="none" xmlns="http://www.w3.org/2000/svg">
<path fill-rule="evenodd" clip-rule="evenodd" d="M-209 388.344L-178.919 399.439C-147.256 416.083 -85.5111 449.369 -23.7667 416.083C36.3945 388.344 98.1389 288.484 159.883 305.127C221.628 321.771 283.372 449.369 345.117 449.369C406.861 449.369 468.606 321.771 528.767 221.911C590.511 127.599 652.256 61.0255 683.919 27.7389L714 0V871H683.919C652.256 871 590.511 871 528.767 871C468.606 871 406.861 871 345.117 871C283.372 871 221.628 871 159.883 871C98.1389 871 36.3945 871 -23.7667 871C-85.5111 871 -147.256 871 -178.919 871H-209V388.344Z" fill="url(#paint0_linear_253_2811)"/>
<defs>
<linearGradient id="paint0_linear_253_2811" x1="252.5" y1="0" x2="252.5" y2="871" gradientUnits="userSpaceOnUse">
<stop offset="0.473958" stop-color="#A210C6" stop-opacity="0"/>
<stop offset="0.880208" stop-color="#A210C6"/>
</linearGradient>
</defs>
</svg>
