<svg width="30" height="31" viewBox="0 0 30 31" fill="none" xmlns="http://www.w3.org/2000/svg">
<path fill-rule="evenodd" clip-rule="evenodd" d="M12.1312 0.779297H16.4735C19.0381 0.779297 21.0698 0.779297 22.6591 1.04158C24.2944 1.31244 25.6186 1.88158 26.6637 3.16387C27.953 4.74958 28.3646 6.87187 28.514 9.62673C29.3191 10.0604 29.9274 10.981 29.993 12.1467C30 12.2513 30 12.3627 30 12.4656V19.093C30 19.1959 30 19.3073 29.9944 19.4102C29.9274 20.5759 29.3191 21.4982 28.514 21.9336C28.3646 24.6867 27.953 26.809 26.6637 28.3947C25.6186 29.677 24.2944 30.2462 22.6591 30.517C21.0684 30.7793 19.0381 30.7793 16.4735 30.7793H12.1312C9.56651 30.7793 7.53488 30.7793 5.94558 30.517C4.31023 30.2462 2.98605 29.677 1.94093 28.3947C0.897209 27.1107 0.433953 25.4839 0.213488 23.4747C0 21.5204 0 19.0262 0 15.8753V15.6833C0 12.5324 0 10.0364 0.213488 8.08387C0.433953 6.07473 0.897209 4.44787 1.94093 3.16387C2.98605 1.88158 4.31023 1.31244 5.94558 1.04158C7.53628 0.779297 9.56651 0.779297 12.1312 0.779297ZM26.3972 22.2079H23.693C20.7 22.2079 18.1381 19.417 18.1381 15.7793C18.1381 12.1416 20.7 9.35073 23.6916 9.35073H26.3958C26.2367 7.05187 25.8781 5.83644 25.1819 4.98273C24.5916 4.25758 23.7823 3.82215 22.3786 3.59073C20.9456 3.35415 19.0549 3.35073 16.394 3.35073H12.2079C9.54698 3.35073 7.65767 3.35415 6.22186 3.59073C4.81953 3.82215 4.01023 4.25758 3.42 4.98273C2.82977 5.70787 2.47535 6.70215 2.28698 8.42673C2.09442 10.189 2.09163 12.5102 2.09163 15.7793C2.09163 19.0484 2.09442 21.3713 2.28698 23.1336C2.47535 24.8564 2.82977 25.8507 3.42 26.5759C4.01023 27.301 4.81953 27.7364 6.22326 27.9679C7.65767 28.2044 9.54698 28.2079 12.2079 28.2079H16.394C19.0549 28.2079 20.9456 28.2044 22.38 27.9679C23.7823 27.7364 24.5916 27.301 25.1819 26.5759C25.8781 25.7222 26.2381 24.5084 26.3972 22.2079ZM5.5814 8.92215C5.5814 8.58116 5.69165 8.25413 5.88791 8.01302C6.08417 7.7719 6.35035 7.63644 6.62791 7.63644H12.2093C12.4869 7.63644 12.753 7.7719 12.9493 8.01302C13.1456 8.25413 13.2558 8.58116 13.2558 8.92215C13.2558 9.26315 13.1456 9.59017 12.9493 9.83129C12.753 10.0724 12.4869 10.2079 12.2093 10.2079H6.62791C6.35035 10.2079 6.08417 10.0724 5.88791 9.83129C5.69165 9.59017 5.5814 9.26315 5.5814 8.92215ZM27.4521 11.9222H23.693C21.706 11.9222 20.2312 13.7376 20.2312 15.7793C20.2312 17.821 21.706 19.6364 23.6916 19.6364H27.4842C27.7716 19.6142 27.8958 19.3759 27.9056 19.2319V12.3267C27.8958 12.1827 27.7716 11.9444 27.4842 11.9239L27.4521 11.9222Z" fill="#212427"/>
</svg>
