<svg width="114" height="119" viewBox="0 0 114 119" fill="none" xmlns="http://www.w3.org/2000/svg">
<path d="M95.8889 111.455H18.1111C11.9746 111.455 7 105.806 7 98.8372V42.056C7 35.0873 11.9746 29.438 18.1111 29.438H95.8889C102.026 29.438 107 35.0873 107 42.056V98.8372C107 105.806 102.026 111.455 95.8889 111.455Z" fill="#A210C6" stroke="white" stroke-width="14"/>
<path d="M81.9995 73.601C80.4656 73.601 79.2217 72.1884 79.2217 70.4465C79.2217 68.7046 80.4656 67.292 81.9995 67.292C83.5333 67.292 84.7772 68.7046 84.7772 70.4465C84.7772 72.1884 83.5333 73.601 81.9995 73.601Z" fill="#A210C6" stroke="white" stroke-width="14" stroke-linecap="round" stroke-linejoin="round"/>
<path d="M90.3333 29.4372V20.6249C90.3333 12.3345 83.4133 6.29682 76.3595 8.43293L15.2482 26.9394C10.3843 28.4124 7 33.4148 7 39.1314V42.0553" fill="#A210C6"/>
<path d="M90.3333 29.4372V20.6249C90.3333 12.3345 83.4133 6.29682 76.3594 8.43293L15.2482 26.9394C10.3843 28.4124 7 33.4148 7 39.1314V42.0553" stroke="white" stroke-width="14"/>
</svg>
