<svg width="30" height="30" viewBox="0 0 30 30" fill="none" xmlns="http://www.w3.org/2000/svg">
<path fill-rule="evenodd" clip-rule="evenodd" d="M12.1312 0H16.4735C19.0381 0 21.0698 2.04359e-07 22.6591 0.262286C24.2944 0.533143 25.6186 1.10229 26.6637 2.38457C27.953 3.97029 28.3646 6.09257 28.514 8.84743C29.3191 9.28114 29.9274 10.2017 29.993 11.3674C30 11.472 30 11.5834 30 11.6863V18.3137C30 18.4166 30 18.528 29.9944 18.6309C29.9274 19.7966 29.3191 20.7189 28.514 21.1543C28.3646 23.9074 27.953 26.0297 26.6637 27.6154C25.6186 28.8977 24.2944 29.4669 22.6591 29.7377C21.0684 30 19.0381 30 16.4735 30H12.1312C9.56651 30 7.53488 30 5.94558 29.7377C4.31023 29.4669 2.98605 28.8977 1.94093 27.6154C0.897209 26.3314 0.433953 24.7046 0.213488 22.6954C0 20.7411 0 18.2469 0 15.096V14.904C0 11.7531 0 9.25714 0.213488 7.30457C0.433953 5.29543 0.897209 3.66857 1.94093 2.38457C2.98605 1.10229 4.31023 0.533143 5.94558 0.262286C7.53628 2.04359e-07 9.56651 0 12.1312 0ZM26.3972 21.4286H23.693C20.7 21.4286 18.1381 18.6377 18.1381 15C18.1381 11.3623 20.7 8.57143 23.6916 8.57143H26.3958C26.2367 6.27257 25.8781 5.05714 25.1819 4.20343C24.5916 3.47829 23.7823 3.04286 22.3786 2.81143C20.9456 2.57486 19.0549 2.57143 16.394 2.57143H12.2079C9.54698 2.57143 7.65767 2.57486 6.22186 2.81143C4.81953 3.04286 4.01023 3.47829 3.42 4.20343C2.82977 4.92857 2.47535 5.92286 2.28698 7.64743C2.09442 9.40971 2.09163 11.7309 2.09163 15C2.09163 18.2691 2.09442 20.592 2.28698 22.3543C2.47535 24.0771 2.82977 25.0714 3.42 25.7966C4.01023 26.5217 4.81953 26.9571 6.22326 27.1886C7.65767 27.4251 9.54698 27.4286 12.2079 27.4286H16.394C19.0549 27.4286 20.9456 27.4251 22.38 27.1886C23.7823 26.9571 24.5916 26.5217 25.1819 25.7966C25.8781 24.9429 26.2381 23.7291 26.3972 21.4286ZM5.5814 8.14286C5.5814 7.80186 5.69165 7.47484 5.88791 7.23372C6.08417 6.9926 6.35035 6.85714 6.62791 6.85714H12.2093C12.4869 6.85714 12.753 6.9926 12.9493 7.23372C13.1456 7.47484 13.2558 7.80186 13.2558 8.14286C13.2558 8.48385 13.1456 8.81088 12.9493 9.05199C12.753 9.29311 12.4869 9.42857 12.2093 9.42857H6.62791C6.35035 9.42857 6.08417 9.29311 5.88791 9.05199C5.69165 8.81088 5.5814 8.48385 5.5814 8.14286ZM27.4521 11.1429H23.693C21.706 11.1429 20.2312 12.9583 20.2312 15C20.2312 17.0417 21.706 18.8571 23.6916 18.8571H27.4842C27.7716 18.8349 27.8958 18.5966 27.9056 18.4526V11.5474C27.8958 11.4034 27.7716 11.1651 27.4842 11.1446L27.4521 11.1429Z" fill="white"/>
</svg>
