<svg width="150" height="148" viewBox="0 0 150 148" fill="none" xmlns="http://www.w3.org/2000/svg">
<path d="M150 73.6346C150 32.9674 116.421 0 75 0C33.5786 0 0 32.9674 0 73.6346C0 114.302 33.5786 147.269 75 147.269C116.421 147.269 150 114.302 150 73.6346Z" fill="#D188E3"/>
<path d="M37.502 107.725L42.8831 88.0811C38.5434 80.4288 37.1646 71.4992 38.9998 62.931C40.8349 54.3626 45.761 46.7304 52.8739 41.4347C59.9868 36.1391 68.8095 33.5353 77.7231 34.101C86.6366 34.6666 95.0431 38.3641 101.4 44.5146C107.757 50.6652 111.637 58.8564 112.33 67.5851C113.022 76.3138 110.48 84.9946 105.17 92.0344C99.8593 99.0741 92.137 104.001 83.42 105.91C74.7027 107.82 65.5755 106.584 57.7129 102.43L37.502 107.725ZM58.6873 95.079L59.9373 95.8057C65.6323 99.1144 72.284 100.484 78.856 99.7C85.4278 98.9162 91.5505 96.0238 96.2701 91.4733C100.99 86.9226 104.041 80.9697 104.948 74.542C105.856 68.1141 104.568 61.5727 101.287 55.937C98.0053 50.3012 92.914 45.8877 86.8062 43.3843C80.6984 40.8809 73.9174 40.4281 67.5195 42.0967C61.1219 43.7651 55.467 47.4613 51.4361 52.6088C47.4053 57.7564 45.2248 64.0662 45.2346 70.5552C45.2294 75.9357 46.7473 81.2121 49.62 85.7968L50.4039 87.0636L47.3956 98.0277L58.6873 95.079Z" fill="#00D95F"/>
<path fill-rule="evenodd" clip-rule="evenodd" d="M89.0244 75.6003C88.2916 75.0209 87.4337 74.6132 86.5158 74.4081C85.598 74.2031 84.6446 74.206 83.728 74.4167C82.351 74.9774 81.4611 77.0953 80.5714 78.1545C80.3838 78.4083 80.1081 78.5863 79.796 78.6552C79.4839 78.724 79.1571 78.6788 78.8766 78.5281C73.8351 76.5928 69.6095 73.0436 66.8857 68.457C66.6533 68.1709 66.5433 67.8074 66.5789 67.4434C66.6146 67.0792 66.7928 66.7429 67.0763 66.505C68.0687 65.5421 68.7974 64.3494 69.1948 63.0373C69.2831 61.59 68.9448 60.1484 68.2204 58.8842C67.6603 57.1121 66.5943 55.534 65.1485 54.3367C64.4028 54.008 63.5758 53.8978 62.7677 54.0194C61.9595 54.141 61.2045 54.4891 60.5936 55.0219C59.5332 55.9186 58.6916 57.0371 58.1307 58.2949C57.5696 59.5528 57.3037 60.9179 57.3523 62.2897C57.3554 63.0601 57.4552 63.8273 57.6489 64.574C58.1408 66.3678 58.8974 68.0818 59.8946 69.6614C60.6139 70.8714 61.3989 72.043 62.2461 73.1708C64.9991 76.8753 68.4599 80.0205 72.4362 82.432C74.4316 83.6575 76.5641 84.6539 78.7918 85.4015C81.106 86.4296 83.661 86.8243 86.1855 86.5435C87.6239 86.3302 88.9867 85.7735 90.1541 84.9225C91.3215 84.0716 92.2576 82.9525 92.8801 81.6637C93.2458 80.8852 93.3569 80.0147 93.1978 79.1719C92.8166 77.4484 90.4649 76.4309 89.0244 75.6003Z" fill="white"/>
</svg>
