<svg width="27" height="27" viewBox="0 0 27 27" fill="none" xmlns="http://www.w3.org/2000/svg">
<path d="M12.7647 26H2.47059C2.08056 26 1.70651 25.8537 1.43073 25.5932C1.15494 25.3327 1 24.9795 1 24.6111V2.38889C1 2.02053 1.15494 1.66726 1.43073 1.4068C1.70651 1.14633 2.08056 1 2.47059 1H23.0588C23.4488 1 23.8229 1.14633 24.0987 1.4068C24.3745 1.66726 24.5294 2.02053 24.5294 2.38889V10.375" stroke="white" stroke-width="2" stroke-linecap="round" stroke-linejoin="round"/>
<path d="M22.7912 15.584C24.5633 15.584 26.0001 16.8896 26.0001 18.5007C26.0001 20.5979 23.8604 22.3896 22.7912 23.3618C22.078 24.0097 21.1876 24.6583 20.1177 25.3063C19.0486 24.6583 18.1567 24.0097 17.4442 23.3618C16.3743 22.3896 14.2354 20.5979 14.2354 18.5007C14.2354 16.8896 15.6721 15.584 17.4442 15.584C18.5596 15.584 19.5427 16.1021 20.1177 16.8882C20.4184 16.4828 20.8188 16.1523 21.2844 15.9252C21.7501 15.698 22.2671 15.581 22.7912 15.584Z" stroke="white" stroke-width="2" stroke-linejoin="round"/>
<path d="M6.88281 6.55469H18.6475" stroke="white" stroke-width="2" stroke-linecap="round"/>
</svg>
