<svg width="147" height="103" viewBox="0 0 147 103" fill="none" xmlns="http://www.w3.org/2000/svg">
<path d="M74.0513 0C27.5625 0 0 51.5 0 51.5C0 51.5 27.5625 103 74.0513 103C119.438 103 147 51.5 147 51.5C147 51.5 119.438 0 74.0513 0ZM73.5 17.1667C93.8962 17.1667 110.25 32.6167 110.25 51.5C110.25 70.555 93.8962 85.8333 73.5 85.8333C53.2875 85.8333 36.75 70.555 36.75 51.5C36.75 32.6167 53.2875 17.1667 73.5 17.1667ZM73.5 34.3333C63.3937 34.3333 55.125 42.0583 55.125 51.5C55.125 60.9417 63.3937 68.6667 73.5 68.6667C83.6062 68.6667 91.875 60.9417 91.875 51.5C91.875 49.7833 91.14 48.2383 90.7725 46.6933C89.3025 49.44 86.3625 51.5 82.6875 51.5C77.5425 51.5 73.5 47.7233 73.5 42.9167C73.5 39.4833 75.705 36.7367 78.645 35.3633C76.9913 34.8483 75.3375 34.3333 73.5 34.3333Z" fill="white"/>
</svg>
