<svg width="106" height="114" viewBox="0 0 106 114" fill="none" xmlns="http://www.w3.org/2000/svg">
<path d="M34.7744 63.8788H25.3759C23.8252 63.8788 22.5564 62.681 22.5564 61.2172V52.3451C22.5564 50.8812 23.8252 49.6835 25.3759 49.6835H34.7744C36.3252 49.6835 37.594 50.8812 37.594 52.3451V61.2172C37.594 62.681 36.3252 63.8788 34.7744 63.8788ZM60.1504 61.2172V52.3451C60.1504 50.8812 58.8816 49.6835 57.3308 49.6835H47.9323C46.3816 49.6835 45.1128 50.8812 45.1128 52.3451V61.2172C45.1128 62.681 46.3816 63.8788 47.9323 63.8788H57.3308C58.8816 63.8788 60.1504 62.681 60.1504 61.2172ZM82.7068 61.2172V52.3451C82.7068 50.8812 81.438 49.6835 79.8872 49.6835H70.4887C68.938 49.6835 67.6692 50.8812 67.6692 52.3451V61.2172C67.6692 62.681 68.938 63.8788 70.4887 63.8788H79.8872C81.438 63.8788 82.7068 62.681 82.7068 61.2172ZM60.1504 82.5101V73.638C60.1504 72.1741 58.8816 70.9764 57.3308 70.9764H47.9323C46.3816 70.9764 45.1128 72.1741 45.1128 73.638V82.5101C45.1128 83.974 46.3816 85.1717 47.9323 85.1717H57.3308C58.8816 85.1717 60.1504 83.974 60.1504 82.5101ZM37.594 82.5101V73.638C37.594 72.1741 36.3252 70.9764 34.7744 70.9764H25.3759C23.8252 70.9764 22.5564 72.1741 22.5564 73.638V82.5101C22.5564 83.974 23.8252 85.1717 25.3759 85.1717H34.7744C36.3252 85.1717 37.594 83.974 37.594 82.5101ZM82.7068 82.5101V73.638C82.7068 72.1741 81.438 70.9764 79.8872 70.9764H70.4887C68.938 70.9764 67.6692 72.1741 67.6692 73.638V82.5101C67.6692 83.974 68.938 85.1717 70.4887 85.1717H79.8872C81.438 85.1717 82.7068 83.974 82.7068 82.5101ZM105.263 24.8417V102.916C105.263 108.794 100.211 113.562 93.985 113.562H11.2782C5.05169 113.562 0 108.794 0 102.916V24.8417C0 18.964 5.05169 14.1953 11.2782 14.1953H22.5564V2.66162C22.5564 1.19773 23.8252 0 25.3759 0H34.7744C36.3252 0 37.594 1.19773 37.594 2.66162V14.1953H67.6692V2.66162C67.6692 1.19773 68.938 0 70.4887 0H79.8872C81.438 0 82.7068 1.19773 82.7068 2.66162V14.1953H93.985C100.211 14.1953 105.263 18.964 105.263 24.8417ZM93.985 101.585V35.4882H11.2782V101.585C11.2782 102.317 11.9126 102.916 12.688 102.916H92.5752C93.3506 102.916 93.985 102.317 93.985 101.585Z" fill="white"/>
</svg>
