<svg width="30" height="32" viewBox="0 0 30 32" fill="none" xmlns="http://www.w3.org/2000/svg">
<path d="M22.3106 4.31873L21.6131 5.48123C21.5165 5.64698 21.487 5.84346 21.5308 6.03027C21.5746 6.21707 21.6884 6.37998 21.8486 6.48548C23.9937 7.94873 25.6136 10.0607 26.4708 12.5118C27.328 14.9629 27.3773 17.6241 26.6117 20.1053C25.846 22.5865 24.3055 24.7571 22.2162 26.2989C20.1269 27.8407 17.5985 28.6726 15.0019 28.6726C12.4052 28.6726 9.87689 27.8407 7.78755 26.2989C5.6982 24.7571 4.15777 22.5865 3.3921 20.1053C2.62642 17.6241 2.6758 14.9629 3.53297 12.5118C4.39015 10.0607 6.01003 7.94873 8.15513 6.48548C8.31506 6.37988 8.4285 6.21705 8.47216 6.03044C8.51582 5.84382 8.48637 5.64757 8.38988 5.48198L7.69538 4.32248C7.64329 4.2348 7.57408 4.15852 7.49186 4.09818C7.40964 4.03785 7.3161 3.9947 7.21684 3.97132C7.11757 3.94794 7.01461 3.9448 6.91411 3.9621C6.8136 3.97939 6.71762 4.01676 6.63188 4.07198C3.96411 5.86525 1.94298 8.46809 0.866355 11.4969C-0.210267 14.5257 -0.285428 17.8203 0.65195 20.895C1.58933 23.9698 3.48966 26.6621 6.07287 28.5752C8.65608 30.4882 11.7855 31.5209 15 31.5209C18.2145 31.5209 21.3439 30.4882 23.9271 28.5752C26.5103 26.6621 28.4107 23.9698 29.348 20.895C30.2854 17.8203 30.2103 14.5257 29.1336 11.4969C28.057 8.46809 26.0359 5.86525 23.3681 4.07198C23.2832 4.01631 23.1879 3.97847 23.0879 3.96074C22.9879 3.94301 22.8854 3.94577 22.7865 3.96884C22.6876 3.99191 22.5945 4.03482 22.5127 4.09496C22.4309 4.1551 22.3621 4.23123 22.3106 4.31873Z" fill="#A210C6"/>
<path d="M15.749 0H14.249C13.8348 0 13.499 0.335786 13.499 0.75V14.25C13.499 14.6642 13.8348 15 14.249 15H15.749C16.1632 15 16.499 14.6642 16.499 14.25V0.75C16.499 0.335786 16.1632 0 15.749 0Z" fill="#A210C6"/>
</svg>
