<svg width="58" height="58" viewBox="0 0 58 58" fill="none" xmlns="http://www.w3.org/2000/svg">
<g filter="url(#filter0_d_855_1811)">
<rect x="4" width="50" height="50" rx="10" fill="white"/>
</g>
<path d="M25.9101 10.9996C26.1591 10.4088 26.5862 9.90284 27.1367 9.54658C27.6873 9.19033 28.3361 9 29 9C29.6639 9 30.3127 9.19033 30.8633 9.54658C31.4138 9.90284 31.8409 10.4088 32.0899 10.9996C34.5545 11.6502 36.7284 13.0595 38.2778 15.0109C39.8272 16.9623 40.6664 19.3481 40.6665 21.8017V29.3161L43.7198 33.7124C43.8872 33.9533 43.9834 34.2334 43.998 34.5227C44.0127 34.812 43.9452 35.0997 43.8029 35.3551C43.6605 35.6104 43.4486 35.8239 43.1898 35.9728C42.9309 36.1216 42.6348 36.2002 42.3331 36.2001H34.7749C34.5742 37.533 33.88 38.7518 32.8194 39.6333C31.7589 40.5148 30.4029 41 29 41C27.5971 41 26.2411 40.5148 25.1806 39.6333C24.12 38.7518 23.4258 37.533 23.2251 36.2001H15.6669C15.3652 36.2002 15.0691 36.1216 14.8102 35.9728C14.5514 35.8239 14.3395 35.6104 14.1971 35.3551C14.0548 35.0997 13.9873 34.812 14.002 34.5227C14.0166 34.2334 14.1128 33.9533 14.2802 33.7124L17.3335 29.3161V21.8017C17.3335 16.6438 20.9668 12.2987 25.9101 10.9996ZM26.6434 36.2001C26.8155 36.6683 27.1347 37.0737 27.5569 37.3605C27.9791 37.6473 28.4836 37.8013 29.0008 37.8013C29.5181 37.8013 30.0225 37.6473 30.4448 37.3605C30.867 37.0737 31.1862 36.6683 31.3583 36.2001H26.6434ZM29 13.8025C26.7899 13.8025 24.6703 14.6453 23.1075 16.1454C21.5448 17.6455 20.6668 19.6801 20.6668 21.8017V29.8008C20.6669 30.1168 20.5695 30.4258 20.3868 30.6887L18.7818 33.0005H39.2165L37.6115 30.6887C37.4295 30.4256 37.3326 30.1167 37.3332 29.8008V21.8017C37.3332 19.6801 36.4552 17.6455 34.8925 16.1454C33.3297 14.6453 31.2101 13.8025 29 13.8025Z" fill="#212427"/>
<defs>
<filter id="filter0_d_855_1811" x="0" y="0" width="58" height="58" filterUnits="userSpaceOnUse" color-interpolation-filters="sRGB">
<feFlood flood-opacity="0" result="BackgroundImageFix"/>
<feColorMatrix in="SourceAlpha" type="matrix" values="0 0 0 0 0 0 0 0 0 0 0 0 0 0 0 0 0 0 127 0" result="hardAlpha"/>
<feOffset dy="4"/>
<feGaussianBlur stdDeviation="2"/>
<feComposite in2="hardAlpha" operator="out"/>
<feColorMatrix type="matrix" values="0 0 0 0 0 0 0 0 0 0 0 0 0 0 0 0 0 0 0.25 0"/>
<feBlend mode="normal" in2="BackgroundImageFix" result="effect1_dropShadow_855_1811"/>
<feBlend mode="normal" in="SourceGraphic" in2="effect1_dropShadow_855_1811" result="shape"/>
</filter>
</defs>
</svg>
