<svg width="46" height="38" viewBox="0 0 46 38" fill="none" xmlns="http://www.w3.org/2000/svg">
<path fill-rule="evenodd" clip-rule="evenodd" d="M18.7167 0.770508H27.2834C31.1126 0.770508 34.1459 0.770508 36.5188 1.08926C38.9605 1.41842 40.9376 2.11009 42.498 3.66842C44.0563 5.22884 44.748 7.20592 45.0772 9.64759C45.2647 11.0497 45.3417 12.6809 45.373 14.5705C45.4002 14.7289 45.403 14.8905 45.3813 15.0497C45.3959 16.2288 45.3959 17.5038 45.3959 18.883V19.1163C45.3959 22.9455 45.3959 25.9788 45.0772 28.3518C44.748 30.7934 44.0563 32.7705 42.498 34.3309C40.9376 35.8893 38.9605 36.5809 36.5188 36.9101C34.1438 37.2288 31.1126 37.2288 27.2834 37.2288H18.7167C14.8876 37.2288 11.8542 37.2288 9.48133 36.9101C7.03966 36.5809 5.06258 35.8893 3.50216 34.3309C1.94383 32.7705 1.25216 30.7934 0.922997 28.3518C0.604247 25.9768 0.604247 22.9455 0.604247 19.1163V18.883C0.604247 17.5038 0.604247 16.2288 0.618831 15.0497C0.596494 14.8906 0.598602 14.729 0.625081 14.5705C0.658414 12.6809 0.735497 11.0497 0.922997 9.64759C1.25216 7.20592 1.94383 5.22884 3.50216 3.66842C5.06258 2.11009 7.03966 1.41842 9.48133 1.08926C11.8563 0.770508 14.8876 0.770508 18.7167 0.770508ZM3.73341 16.3955C3.72925 17.2038 3.72925 18.0705 3.72925 18.9997C3.72925 22.9726 3.73341 25.7955 4.02091 27.9372C4.30216 30.0309 4.83133 31.2393 5.71258 32.1205C6.59383 33.0018 7.80216 33.5309 9.898 33.8122C12.0397 34.0997 14.8605 34.1038 18.8334 34.1038H27.1667C31.1397 34.1038 33.9626 34.0997 36.1042 33.8122C38.198 33.5309 39.4063 33.0018 40.2876 32.1205C41.1688 31.2393 41.698 30.0309 41.9792 27.9351C42.2667 25.7934 42.2709 22.9726 42.2709 18.9997C42.2709 18.0705 42.2709 17.2038 42.2667 16.3955H3.73341ZM42.2167 13.2705H3.78341C3.82508 12.0476 3.89591 10.9913 4.02091 10.0622C4.30216 7.96842 4.83133 6.76009 5.71258 5.87884C6.59383 4.99759 7.80216 4.46842 9.898 4.18717C12.0397 3.89967 14.8605 3.89551 18.8334 3.89551H27.1667C31.1397 3.89551 33.9626 3.89967 36.1042 4.18717C38.198 4.46842 39.4063 4.99759 40.2876 5.87884C41.1688 6.76009 41.698 7.96842 41.9792 10.0643C42.1042 10.9913 42.1751 12.0476 42.2167 13.2705ZM8.93758 27.333C8.93758 26.9186 9.1022 26.5212 9.39523 26.2282C9.68825 25.9351 10.0857 25.7705 10.5001 25.7705H18.8334C19.2478 25.7705 19.6452 25.9351 19.9383 26.2282C20.2313 26.5212 20.3959 26.9186 20.3959 27.333C20.3959 27.7474 20.2313 28.1448 19.9383 28.4379C19.6452 28.7309 19.2478 28.8955 18.8334 28.8955H10.5001C10.0857 28.8955 9.68825 28.7309 9.39523 28.4379C9.1022 28.1448 8.93758 27.7474 8.93758 27.333ZM22.4792 27.333C22.4792 26.9186 22.6439 26.5212 22.9369 26.2282C23.2299 25.9351 23.6273 25.7705 24.0417 25.7705H27.1667C27.5811 25.7705 27.9786 25.9351 28.2716 26.2282C28.5646 26.5212 28.7292 26.9186 28.7292 27.333C28.7292 27.7474 28.5646 28.1448 28.2716 28.4379C27.9786 28.7309 27.5811 28.8955 27.1667 28.8955H24.0417C23.6273 28.8955 23.2299 28.7309 22.9369 28.4379C22.6439 28.1448 22.4792 27.7474 22.4792 27.333Z" fill="#333333"/>
</svg>
