<svg width="115" height="102" viewBox="0 0 115 102" fill="none" xmlns="http://www.w3.org/2000/svg">
<path d="M66.8763 75.1641C66.8763 75.1641 31.0103 76.1249 19.6758 90.1325" stroke="#C160D9" stroke-width="5.39285" stroke-miterlimit="10" stroke-linecap="round" stroke-linejoin="round"/>
<path d="M38.3252 50.1431C38.3252 50.1431 35.5723 72.4528 56.001 75.9935" stroke="#C160D9" stroke-width="5.39285" stroke-miterlimit="10" stroke-linecap="round" stroke-linejoin="round"/>
<path d="M25.1532 85.3464L20.6729 78.9673" stroke="#C160D9" stroke-width="5.39285" stroke-miterlimit="10" stroke-linecap="round" stroke-linejoin="round"/>
<path d="M86.579 62.8901L85.582 58.7495" stroke="#C160D9" stroke-width="5.39285" stroke-miterlimit="10" stroke-linecap="round" stroke-linejoin="round"/>
<path d="M85.5051 24.0904C64.5342 23.6041 46.4456 10.9294 46.4456 10.9294L46.4428 10.9272C39.6719 13.9995 35.2109 19.2441 35.2109 25.1981C35.2109 34.664 46.4873 42.3377 60.3968 42.3377C74.3069 42.3377 85.5829 34.664 85.5829 25.1981C85.5829 24.8257 85.5653 24.456 85.5311 24.0896" stroke="#C160D9" stroke-width="5.39285" stroke-miterlimit="10" stroke-linecap="round" stroke-linejoin="round"/>
<path d="M88.8405 41.3371C91.9504 39.5466 95.1826 36.2036 95.9835 29.973C97.6311 17.1566 89.1479 3.111 60.4453 3H58.8082C30.1059 3.111 21.6225 17.1566 23.2701 29.973C24.9177 42.7894 36.852 43.3875 36.852 43.3875" stroke="#C160D9" stroke-width="5.39285" stroke-miterlimit="10" stroke-linecap="round" stroke-linejoin="round"/>
<path d="M40.3207 97.0254C-7.18635 101.466 4.19404 85.9479 4.19404 85.9479C4.19404 85.9479 21.1847 59.5836 24.9015 53.2835C26.8106 50.0471 38.3258 50.0157 38.3258 50.0157C38.3258 50.0157 56.0283 57.8767 74.1226 50.5247C74.1226 50.5247 86.5795 43.8411 94.7246 50.0157C96.6969 51.5109 99.9111 55.7989 102.926 60.1868" stroke="#C160D9" stroke-width="5.39285" stroke-miterlimit="10" stroke-linecap="round" stroke-linejoin="round"/>
<path d="M91.3099 88.1492C102.737 88.1492 112 82.8456 112 76.3034C112 69.7611 102.737 64.4575 91.3099 64.4575C79.8833 64.4575 70.6201 69.7611 70.6201 76.3034C70.6201 82.8456 79.8833 88.1492 91.3099 88.1492Z" stroke="#C160D9" stroke-width="5.39285" stroke-miterlimit="10" stroke-linecap="round" stroke-linejoin="round"/>
<path d="M70.3418 99.0868C95.7415 95.7699 110.218 90.0674 110.218 90.0674" stroke="#C160D9" stroke-width="5.39285" stroke-miterlimit="10" stroke-linecap="round" stroke-linejoin="round"/>
<path d="M21.2714 89.8063C21.2721 89.8064 21.2695 89.8114 21.2613 89.8207C21.2666 89.8107 21.2707 89.8061 21.2714 89.8063ZM19.7289 89.6881C20.3048 89.6881 20.7661 89.8199 21.0467 89.9722C20.7661 90.1244 20.3048 90.2563 19.7289 90.2563C19.1531 90.2563 18.6918 90.1244 18.4112 89.9722C18.6918 89.8199 19.1531 89.6881 19.7289 89.6881ZM18.1865 89.8063C18.1872 89.8061 18.1913 89.8107 18.1966 89.8207C18.1884 89.8114 18.1858 89.8064 18.1865 89.8063ZM18.1865 90.1381C18.1858 90.1379 18.1884 90.1329 18.1966 90.1237C18.1913 90.1336 18.1872 90.1382 18.1865 90.1381ZM21.2714 90.1381C21.2707 90.1382 21.2666 90.1336 21.2613 90.1237C21.2695 90.1329 21.2721 90.1379 21.2714 90.1381Z" stroke="#C160D9" stroke-width="2.69643"/>
</svg>
