<svg width="108" height="114" viewBox="0 0 108 114" fill="none" xmlns="http://www.w3.org/2000/svg">
<path d="M29.8617 39.0355H41.8056V53.2302C41.8056 54.1714 42.1202 55.074 42.6802 55.7395C43.2402 56.405 43.9997 56.7789 44.7916 56.7789H56.7355C57.5275 56.7789 58.2869 56.405 58.8469 55.7395C59.4069 55.074 59.7215 54.1714 59.7215 53.2302V39.0355H71.6654C72.4574 39.0355 73.2169 38.6616 73.7768 37.9961C74.3368 37.3306 74.6514 36.428 74.6514 35.4868V21.2921C74.6514 20.3509 74.3368 19.4483 73.7768 18.7828C73.2169 18.1173 72.4574 17.7434 71.6654 17.7434H59.7215V3.54868C59.7215 2.60751 59.4069 1.70489 58.8469 1.03938C58.2869 0.373878 57.5275 0 56.7355 0H44.7916C43.9997 0 43.2402 0.373878 42.6802 1.03938C42.1202 1.70489 41.8056 2.60751 41.8056 3.54868V17.7434H29.8617C29.0698 17.7434 28.3103 18.1173 27.7503 18.7828C27.1903 19.4483 26.8757 20.3509 26.8757 21.2921V35.4868C26.8757 36.428 27.1903 37.3306 27.7503 37.9961C28.3103 38.6616 29.0698 39.0355 29.8617 39.0355ZM106.04 74.5911C105.46 73.6511 104.729 72.8565 103.89 72.253C103.05 71.6496 102.119 71.2491 101.149 71.0745C100.179 70.8999 99.19 70.9548 98.238 71.2359C97.286 71.517 96.3902 72.0188 95.6018 72.7125L73.2685 92.2702H50.7598C49.9679 92.2702 49.2084 91.8963 48.6484 91.2308C48.0884 90.5653 47.7738 89.6627 47.7738 88.7215C47.7738 87.7803 48.0884 86.8777 48.6484 86.2122C49.2084 85.5467 49.9679 85.1728 50.7598 85.1728H65.3613C68.3473 85.1728 71.1 82.7619 71.5889 79.2709C71.7333 78.2515 71.6888 77.207 71.4588 76.2101C71.2287 75.2132 70.8185 74.2879 70.2567 73.4987C69.695 72.7094 68.9952 72.0753 68.2061 71.6403C67.4171 71.2054 66.5577 70.9802 65.6879 70.9803H35.8281C30.7919 70.9791 25.9084 73.0345 21.9955 76.8024L13.3175 85.1728H2.98598C2.19571 85.1792 1.43934 85.5551 0.880517 86.2193C0.321698 86.8834 0.00537784 87.7823 0 88.7215V110.014C0.00537784 110.953 0.321698 111.852 0.880517 112.516C1.43934 113.18 2.19571 113.556 2.98598 113.562H67.7445C71.8864 113.551 75.9183 111.976 79.2592 109.067L104.459 86.9826C106.049 85.587 107.109 83.4985 107.406 81.1753C107.702 78.8522 107.211 76.4843 106.04 74.5911Z" fill="white"/>
</svg>
