<svg width="118" height="93" viewBox="0 0 118 93" fill="none" xmlns="http://www.w3.org/2000/svg">
<path fill-rule="evenodd" clip-rule="evenodd" d="M103.445 36.7514H41.6247C39.8051 36.7514 38.0699 35.9311 36.7973 34.4888L40.9831 29.8079C41.1533 30.0009 41.3843 30.1095 41.6247 30.1095H103.445C109.855 30.1095 115.05 36.0072 115.05 43.2825C115.05 50.5581 109.855 56.4558 103.445 56.4558H32.6632C31.7814 56.4558 30.936 56.0586 30.312 55.3516L6.39293 28.2424C1.80262 23.0398 1.80262 14.5962 6.39293 9.39351C10.973 4.20281 18.3911 4.20281 22.971 9.39351L40.9831 29.8079L36.7973 34.4888L18.7849 14.0744C16.5123 11.4983 12.8517 11.4983 10.5789 14.0744C8.27397 16.6867 8.27397 20.9492 10.5789 23.5618L33.742 49.8139H103.445C106.55 49.8139 109.15 46.9419 109.15 43.2825C109.15 39.6231 106.55 36.7514 103.445 36.7514Z" fill="#C160D9"/>
<path d="M8.84961 29.8892L14.7496 33.8139V73.0619H8.84961V29.8892Z" fill="#C160D9"/>
<path d="M100.3 54.874H106.2V73.7229H100.3V54.874Z" fill="#C160D9"/>
<path fill-rule="evenodd" clip-rule="evenodd" d="M118 73.0614H0V66.4194H118V73.0614Z" fill="#C160D9"/>
<path fill-rule="evenodd" clip-rule="evenodd" d="M13.2752 86.3451C15.7191 86.3451 17.7002 84.1148 17.7002 81.3637C17.7002 78.6126 15.7191 76.3822 13.2752 76.3822C10.8313 76.3822 8.8502 78.6126 8.8502 81.3637C8.8502 84.1148 10.8313 86.3451 13.2752 86.3451ZM13.2752 92.9871C18.9775 92.9871 23.6002 87.7831 23.6002 81.3637C23.6002 74.9442 18.9775 69.7402 13.2752 69.7402C7.57285 69.7402 2.9502 74.9442 2.9502 81.3637C2.9502 87.7831 7.57285 92.9871 13.2752 92.9871Z" fill="#C160D9"/>
<path fill-rule="evenodd" clip-rule="evenodd" d="M104.725 86.3451C107.169 86.3451 109.15 84.1148 109.15 81.3637C109.15 78.6126 107.169 76.3822 104.725 76.3822C102.282 76.3822 100.3 78.6126 100.3 81.3637C100.3 84.1148 102.282 86.3451 104.725 86.3451ZM104.725 92.9871C110.428 92.9871 115.05 87.7831 115.05 81.3637C115.05 74.9442 110.428 69.7402 104.725 69.7402C99.023 69.7402 94.4004 74.9442 94.4004 81.3637C94.4004 87.7831 99.023 92.9871 104.725 92.9871Z" fill="#C160D9"/>
<path fill-rule="evenodd" clip-rule="evenodd" d="M19.9517 3.66435C24.2976 -1.22381 31.3411 -1.22108 35.6838 3.67033L40.9943 9.65175C45.3376 14.5436 45.3353 22.4721 40.989 27.3606L36.6525 32.2381L32.4824 27.5396L36.8189 22.662C38.8597 20.3666 38.8609 16.6441 36.8216 14.3473L31.511 8.36586C29.4714 6.06841 26.1629 6.06708 24.1218 8.36287L19.7853 13.2404L15.6152 8.54187L19.9517 3.66435Z" fill="#C160D9"/>
</svg>
