<svg width="30" height="30" viewBox="0 0 30 30" fill="none" xmlns="http://www.w3.org/2000/svg">
<path d="M10.3141 0H19.6871V3.37534C20.6977 3.80158 21.5692 4.31086 22.3639 4.9159L22.3341 4.89423L25.3031 3.1806L30 11.3592L27.0271 13.0663C27.0903 13.5179 27.1264 14.0396 27.1264 14.5697C27.1264 15.0998 27.0903 15.6214 27.0205 16.1323L27.0271 16.073L30 17.7801L25.3031 25.9587L22.3328 24.2451C21.5679 24.8284 20.6964 25.3377 19.7652 25.734L19.6858 25.764V29.2094H10.3142V25.8795C9.30361 25.4532 8.43207 24.9439 7.63743 24.3389L7.66715 24.3606L4.69686 26.0742L0 17.8956L2.97416 16.1885C2.90998 15.7291 2.87342 15.1984 2.87342 14.6592C2.87342 14.12 2.91004 13.5892 2.98095 13.0695L2.97416 13.1299L0.00131214 11.4202L4.6982 3.24158L7.66843 4.95521C8.43301 4.37097 9.30404 3.86089 10.2349 3.46376L10.3142 3.4337L10.3141 0ZM17.7398 1.9473H12.2614V4.79165L11.6123 5.02013C10.3685 5.46227 9.29508 6.09033 8.36535 6.88203L8.37975 6.87005L7.86049 7.31276L5.41466 5.90677L2.65988 10.7101L5.12647 12.129L4.99669 12.8119C4.8835 13.3693 4.81869 14.0099 4.81869 14.6657C4.81869 15.3215 4.8835 15.9622 5.00696 16.5816L4.99669 16.5195L5.12647 17.2024L2.65994 18.6213L5.41469 23.4246L7.86049 22.0044L8.37973 22.4471C9.29295 23.2261 10.3636 23.8539 11.5332 24.2746L11.6045 24.297L12.2536 24.5255V27.262H17.7319V24.4177L18.381 24.1892C19.6278 23.748 20.7039 23.1198 21.6358 22.3273L21.6213 22.3393L22.1406 21.8966L24.5864 23.3026L27.3412 18.4993L24.8668 17.0881L24.9966 16.404C25.1091 15.855 25.1734 15.2241 25.1734 14.5781C25.1734 13.9321 25.1091 13.3012 24.9864 12.6913L24.9966 12.7522L24.8668 12.068L27.3399 10.6478L24.5851 5.8445L22.1406 7.26084L21.6213 6.81557C20.7081 6.03656 19.6374 5.40867 18.4678 4.98799L18.3966 4.96565L17.7474 4.73717L17.7398 1.9473ZM15.0006 8.67193C18.2772 8.67193 20.9334 11.3281 20.9334 14.6047C20.9334 17.8813 18.2772 20.5375 15.0006 20.5375C11.7241 20.5375 9.06786 17.8812 9.06786 14.6047C9.07157 11.3296 11.7255 8.67564 15.0002 8.67193H15.0006ZM15.0006 18.5901C17.2017 18.5901 18.9861 16.8058 18.9861 14.6047C18.9861 12.4035 17.2017 10.6192 15.0006 10.6192C12.7995 10.6192 11.0151 12.4036 11.0151 14.6047C11.0174 16.8049 12.8004 18.5879 15.0004 18.5901H15.0006Z" fill="black"/>
</svg>
