<svg width="130" height="130" viewBox="0 0 130 130" fill="none" xmlns="http://www.w3.org/2000/svg">
<path d="M65.7185 69.68C65.2985 69.62 64.7585 69.62 64.2785 69.68C53.7185 69.32 45.3184 60.68 45.3184 50.0599C45.3184 39.1999 54.0785 30.3799 64.9985 30.3799C75.8585 30.3799 84.6785 39.1999 84.6785 50.0599C84.6185 60.68 76.2785 69.32 65.7185 69.68Z" stroke="white" stroke-width="10" stroke-linecap="round" stroke-linejoin="round"/>
<path d="M105.439 109.28C94.7585 119.06 80.5985 125 64.9985 125C49.3986 125 35.2386 119.06 24.5586 109.28C25.1586 103.64 28.7586 98.1204 35.1786 93.8004C51.6186 82.8804 78.4985 82.8804 94.8185 93.8004C101.239 98.1204 104.839 103.64 105.439 109.28Z" stroke="white" stroke-width="10" stroke-linecap="round" stroke-linejoin="round"/>
<path d="M65 125C98.1368 125 125 98.1368 125 65C125 31.8629 98.1368 5 65 5C31.8629 5 5 31.8629 5 65C5 98.1368 31.8629 125 65 125Z" stroke="white" stroke-width="10" stroke-linecap="round" stroke-linejoin="round"/>
</svg>
